<svg width="821" height="1158" viewBox="0 0 821 1158" fill="none" xmlns="http://www.w3.org/2000/svg">
<g clip-path="url(#clip0_20_84)">
<path d="M673.701 464.935H577.61L532.476 386.908H526.39L574.567 470.202H673.701V464.935Z" fill="#292929"/>
<path d="M362.18 845.405L362.947 846.746H492.269L556.948 734.979L556.891 734.902H550.816L550.867 734.979L489.226 841.48H365.975L304.339 734.979L364.657 630.712V623.206H362.947L298.279 734.979L362.18 845.405Z" fill="#292929"/>
<path d="M303.948 514.967L303.17 513.673H184.764V518.918H300.137L361.773 625.471L301.162 730.221V737.193H303.17L367.844 625.471L303.948 514.967Z" fill="#292929"/>
<path d="M532.975 739.269L483.279 825.194H488.408L538.134 739.269L483.959 645.689L483.315 644.564H373.724L319.868 737.584H325.027L376.288 648.977H480.746L532.975 739.269Z" fill="#292929"/>
<path d="M502.803 377.105H373.441L372.699 378.425L308.787 488.878L370.995 596.433H375.165V593.139L314.848 488.878L376.499 382.376H499.755L561.396 488.878L561.335 488.95H567.421L567.457 488.878L502.803 377.105Z" fill="#292929"/>
<path d="M873.237 596.771L872.47 598.112H743.143L678.474 486.344L678.526 486.267H684.571L684.535 486.344L746.171 592.872H869.448L931.048 486.344L870.755 382.083V374.572H872.47L937.133 486.344L873.237 596.771Z" fill="#292929"/>
<path d="M562.37 490.368V485.122H683.217L747.895 596.921L747.834 597.018H741.753L741.815 596.921L680.184 490.368H562.37Z" fill="#292929"/>
<path d="M752.55 395.909L753.24 394.81H862.816L916.657 487.855H911.528L860.247 399.275H755.799L703.559 489.536L755.799 579.802H756.314V584.241H753.24L698.405 489.536L752.55 395.909Z" fill="#292929"/>
<path d="M794.971 370.914C793.424 370.901 791.914 371.385 790.664 372.295C789.414 373.204 788.491 374.491 788.03 375.964H741.614L697.813 441.934H634.751V445.53H697.813L741.614 379.525H787.896C788.287 381.097 789.198 382.492 790.482 383.483C791.766 384.474 793.347 385.004 794.971 384.986C799.09 384.986 802.328 381.816 802.328 377.963C802.328 374.11 799.074 370.914 794.971 370.914ZM794.971 379.648C794.739 379.651 794.51 379.609 794.295 379.524C794.08 379.439 793.884 379.312 793.718 379.152C793.552 378.991 793.419 378.799 793.328 378.587C793.236 378.375 793.187 378.147 793.184 377.917C793.188 377.443 793.377 376.99 793.71 376.653C794.044 376.316 794.496 376.123 794.971 376.113C795.214 376.102 795.457 376.141 795.684 376.226C795.912 376.312 796.12 376.444 796.295 376.613C796.47 376.781 796.609 376.984 796.702 377.208C796.796 377.433 796.843 377.674 796.84 377.917C796.844 378.158 796.798 378.397 796.704 378.619C796.61 378.841 796.47 379.041 796.294 379.206C796.118 379.371 795.91 379.498 795.682 379.577C795.454 379.657 795.211 379.688 794.971 379.669V379.648Z" fill="#292929"/>
<path d="M628.176 450.185C629.73 450.177 631.242 449.68 632.496 448.765C633.751 447.85 634.684 446.563 635.163 445.088H637.531V441.528H635.302C635.037 440.175 634.393 438.926 633.443 437.925C632.494 436.924 631.278 436.214 629.939 435.876C628.6 435.539 627.193 435.589 625.881 436.019C624.569 436.45 623.407 437.244 622.531 438.309C621.654 439.374 621.099 440.666 620.931 442.033C620.762 443.401 620.987 444.789 621.579 446.034C622.171 447.279 623.105 448.33 624.273 449.065C625.442 449.8 626.795 450.189 628.176 450.185ZM628.176 441.358C628.656 441.368 629.113 441.56 629.456 441.895C629.798 442.231 630 442.683 630.019 443.162C629.986 443.624 629.777 444.057 629.434 444.371C629.091 444.684 628.641 444.855 628.176 444.847C627.946 444.856 627.715 444.82 627.499 444.741C627.283 444.661 627.084 444.539 626.915 444.382C626.746 444.226 626.61 444.037 626.514 443.828C626.419 443.618 626.366 443.392 626.359 443.162C626.357 442.923 626.403 442.688 626.494 442.467C626.585 442.247 626.719 442.048 626.888 441.88C627.058 441.712 627.259 441.579 627.48 441.49C627.701 441.4 627.938 441.355 628.176 441.358Z" fill="#292929"/>
<path d="M529.675 393.273C531.225 393.256 532.731 392.755 533.982 391.841C535.233 390.927 536.166 389.646 536.652 388.177H536.749V384.58C536.292 382.887 535.241 381.414 533.787 380.429C532.333 379.444 530.573 379.013 528.827 379.213C527.081 379.413 525.466 380.232 524.274 381.521C523.082 382.809 522.393 384.482 522.333 386.234C522.358 390.108 525.633 393.273 529.675 393.273ZM529.675 384.426C530.153 384.445 530.605 384.644 530.942 384.982C531.279 385.32 531.476 385.773 531.492 386.25C531.462 386.709 531.257 387.14 530.919 387.453C530.581 387.766 530.136 387.939 529.675 387.935C529.443 387.946 529.212 387.911 528.994 387.832C528.776 387.753 528.576 387.632 528.405 387.475C528.235 387.318 528.097 387.129 528 386.919C527.904 386.709 527.85 386.481 527.842 386.25C527.841 386.01 527.887 385.771 527.979 385.549C528.07 385.327 528.206 385.125 528.376 384.955C528.547 384.786 528.749 384.651 528.972 384.561C529.195 384.47 529.434 384.424 529.675 384.426Z" fill="#292929"/>
<path d="M322.179 748.096C323.731 748.084 325.24 747.586 326.492 746.671C327.744 745.756 328.676 744.472 329.156 742.999H329.264V739.439C328.996 738.089 328.35 736.844 327.399 735.848C326.449 734.852 325.234 734.146 323.897 733.813C322.56 733.48 321.156 733.533 319.848 733.966C318.54 734.4 317.382 735.196 316.51 736.261C315.639 737.326 315.089 738.617 314.924 739.982C314.76 741.348 314.989 742.732 315.583 743.973C316.177 745.214 317.113 746.26 318.281 746.99C319.449 747.72 320.801 748.104 322.179 748.096ZM322.179 739.269C322.658 739.284 323.113 739.477 323.456 739.811C323.798 740.145 324.002 740.595 324.028 741.072C323.99 741.534 323.778 741.965 323.436 742.277C323.093 742.59 322.644 742.762 322.179 742.758C321.948 742.767 321.717 742.731 321.5 742.652C321.282 742.572 321.083 742.451 320.913 742.294C320.742 742.138 320.605 741.949 320.508 741.739C320.41 741.53 320.356 741.303 320.346 741.072C320.347 740.833 320.395 740.597 320.488 740.377C320.58 740.157 320.716 739.957 320.886 739.79C321.057 739.622 321.259 739.49 321.481 739.4C321.703 739.311 321.94 739.266 322.179 739.269Z" fill="#292929"/>
<path d="M756.669 589.826C758.221 589.812 759.731 589.314 760.984 588.399C762.237 587.485 763.172 586.201 763.656 584.729H763.769V581.132C763.5 579.78 762.852 578.532 761.9 577.533C760.948 576.535 759.73 575.827 758.39 575.493C757.05 575.158 755.642 575.211 754.331 575.644C753.02 576.078 751.859 576.874 750.984 577.941C750.109 579.008 749.556 580.301 749.39 581.669C749.223 583.038 749.45 584.425 750.044 585.67C750.638 586.915 751.574 587.965 752.743 588.699C753.912 589.433 755.267 589.82 756.648 589.815L756.669 589.826ZM756.669 580.953C757.155 580.96 757.619 581.155 757.966 581.495C758.312 581.836 758.513 582.297 758.527 582.782C758.489 583.247 758.276 583.681 757.932 583.997C757.587 584.313 757.137 584.488 756.669 584.487C756.199 584.487 755.748 584.301 755.416 583.97C755.084 583.638 754.898 583.189 754.898 582.72C754.898 582.251 755.084 581.802 755.416 581.47C755.748 581.139 756.199 580.953 756.669 580.953Z" fill="#292929"/>
<path d="M294.798 551.204C296.35 551.192 297.858 550.693 299.11 549.779C300.362 548.864 301.294 547.58 301.775 546.108H301.883V542.547H301.909C301.458 540.847 300.408 539.366 298.952 538.375C297.496 537.384 295.731 536.949 293.981 537.151C292.23 537.353 290.61 538.177 289.419 539.472C288.227 540.768 287.543 542.449 287.492 544.207C287.502 548.034 290.772 551.204 294.798 551.204ZM294.798 542.352C295.279 542.376 295.734 542.581 296.071 542.924C296.407 543.268 296.602 543.726 296.616 544.207C296.585 544.664 296.379 545.091 296.041 545.4C295.702 545.71 295.257 545.876 294.798 545.866C294.569 545.879 294.339 545.845 294.123 545.768C293.907 545.691 293.708 545.572 293.538 545.418C293.369 545.263 293.231 545.076 293.135 544.869C293.038 544.661 292.984 544.436 292.976 544.207C292.971 543.965 293.015 543.725 293.105 543.5C293.195 543.276 293.328 543.071 293.498 542.899C293.668 542.726 293.87 542.589 294.093 542.495C294.316 542.401 294.556 542.352 294.798 542.352Z" fill="#292929"/>
<path d="M183.116 524.431C184.666 524.419 186.173 523.923 187.426 523.012C188.679 522.102 189.615 520.823 190.103 519.355H190.191V515.759H190.227C189.77 514.067 188.72 512.595 187.269 511.609C185.817 510.624 184.059 510.191 182.314 510.388C180.569 510.586 178.954 511.402 177.76 512.687C176.567 513.972 175.875 515.642 175.81 517.393C175.81 521.236 179.085 524.431 183.116 524.431ZM183.116 515.579C183.597 515.597 184.053 515.795 184.392 516.135C184.732 516.474 184.931 516.929 184.949 517.408C184.916 517.869 184.708 518.3 184.368 518.614C184.027 518.927 183.579 519.098 183.116 519.093C182.884 519.106 182.652 519.073 182.434 518.995C182.215 518.916 182.014 518.795 181.844 518.638C181.673 518.48 181.536 518.291 181.441 518.079C181.345 517.868 181.294 517.64 181.288 517.408C181.282 517.167 181.325 516.926 181.414 516.702C181.504 516.477 181.638 516.274 181.809 516.103C181.98 515.931 182.184 515.797 182.409 515.707C182.634 515.617 182.874 515.573 183.116 515.579Z" fill="#292929"/>
<path d="M467.442 157.124C468.99 157.114 470.496 156.619 471.748 155.709C472.999 154.8 473.933 153.521 474.418 152.053H474.526V148.457C474.259 147.109 473.613 145.864 472.663 144.868C471.713 143.872 470.5 143.166 469.163 142.832C467.827 142.499 466.423 142.551 465.115 142.983C463.808 143.415 462.65 144.21 461.778 145.274C460.905 146.337 460.354 147.627 460.188 148.991C460.022 150.356 460.248 151.74 460.84 152.981C461.432 154.222 462.366 155.27 463.532 156.001C464.698 156.733 466.049 157.119 467.426 157.114L467.442 157.124ZM467.442 148.298C467.918 148.313 468.37 148.508 468.708 148.844C469.045 149.18 469.242 149.631 469.259 150.106C469.228 150.565 469.022 150.994 468.684 151.306C468.346 151.618 467.902 151.79 467.442 151.786C467.21 151.797 466.979 151.763 466.762 151.684C466.544 151.605 466.344 151.484 466.174 151.328C466.003 151.172 465.866 150.983 465.769 150.774C465.672 150.564 465.617 150.337 465.609 150.106C465.606 149.866 465.651 149.628 465.743 149.406C465.834 149.184 465.969 148.983 466.141 148.814C466.312 148.645 466.515 148.512 466.738 148.424C466.962 148.335 467.201 148.292 467.442 148.298Z" fill="#292929"/>
<path d="M519.99 193.87C521.537 193.863 523.043 193.372 524.296 192.467C525.549 191.562 526.486 190.288 526.977 188.825H527.09V185.228C526.638 183.526 525.587 182.044 524.128 181.054C522.67 180.064 520.902 179.631 519.15 179.836C517.398 180.041 515.778 180.869 514.589 182.169C513.399 183.469 512.719 185.153 512.674 186.913C512.684 190.726 515.969 193.87 519.99 193.87ZM519.99 185.069C520.473 185.078 520.934 185.274 521.276 185.615C521.618 185.956 521.814 186.416 521.823 186.898C521.787 187.357 521.577 187.786 521.237 188.097C520.897 188.409 520.452 188.581 519.99 188.578C519.76 188.587 519.531 188.55 519.315 188.471C519.099 188.391 518.901 188.27 518.732 188.114C518.563 187.958 518.427 187.77 518.331 187.561C518.235 187.353 518.181 187.127 518.173 186.898C518.165 186.657 518.208 186.417 518.296 186.193C518.385 185.969 518.518 185.765 518.688 185.594C518.858 185.423 519.061 185.289 519.285 185.198C519.509 185.108 519.749 185.064 519.99 185.069Z" fill="#292929"/>
<path d="M677.753 474.302C679.303 474.286 680.81 473.786 682.061 472.873C683.312 471.96 684.245 470.679 684.73 469.21H684.843V465.614C684.385 463.92 683.334 462.447 681.879 461.462C680.425 460.478 678.665 460.046 676.919 460.247C675.173 460.448 673.557 461.268 672.366 462.558C671.174 463.847 670.486 465.52 670.427 467.273C670.447 471.106 673.712 474.302 677.753 474.302ZM677.753 465.454C678.235 465.469 678.693 465.666 679.034 466.006C679.375 466.346 679.572 466.803 679.586 467.283C679.552 467.744 679.344 468.174 679.003 468.486C678.663 468.798 678.216 468.969 677.753 468.963C677.522 468.976 677.29 468.942 677.072 468.864C676.854 468.786 676.653 468.665 676.483 468.508C676.312 468.352 676.174 468.163 676.078 467.953C675.981 467.742 675.928 467.515 675.921 467.283C675.913 467.041 675.956 466.8 676.046 466.574C676.135 466.349 676.27 466.144 676.441 465.973C676.613 465.801 676.818 465.666 677.043 465.576C677.269 465.486 677.511 465.443 677.753 465.449V465.454Z" fill="#292929"/>
<path d="M210.58 484.274C212.13 484.269 213.639 483.775 214.892 482.864C216.145 481.952 217.077 480.67 217.556 479.198H219.914V475.602H217.69C217.421 474.251 216.772 473.004 215.82 472.007C214.867 471.01 213.65 470.304 212.311 469.971C210.972 469.638 209.565 469.691 208.255 470.125C206.945 470.56 205.786 471.356 204.912 472.423C204.039 473.49 203.487 474.782 203.322 476.149C203.157 477.517 203.384 478.903 203.978 480.146C204.572 481.39 205.508 482.439 206.677 483.172C207.846 483.904 209.199 484.29 210.58 484.285V484.274ZM210.58 475.442C211.056 475.462 211.508 475.659 211.847 475.993C212.186 476.327 212.387 476.776 212.413 477.251C212.377 477.711 212.169 478.14 211.828 478.452C211.488 478.764 211.042 478.935 210.58 478.931C210.348 478.942 210.117 478.907 209.9 478.829C209.682 478.75 209.482 478.629 209.312 478.473C209.141 478.316 209.004 478.128 208.907 477.918C208.81 477.709 208.755 477.482 208.747 477.251C208.746 477.012 208.793 476.774 208.885 476.553C208.977 476.332 209.113 476.132 209.283 475.963C209.454 475.795 209.656 475.662 209.879 475.573C210.102 475.483 210.34 475.439 210.58 475.442Z" fill="#292929"/>
<path d="M509.106 352.87C507.559 352.883 506.055 353.377 504.802 354.282C503.549 355.187 502.61 356.458 502.114 357.92H366.732L296.801 475.576H215.45V479.136L296.801 479.188L366.732 361.532H501.995C502.442 363.078 503.374 364.44 504.654 365.418C505.933 366.396 507.494 366.94 509.106 366.968C513.225 366.968 516.571 363.777 516.571 359.95C516.571 355.993 513.199 352.87 509.106 352.87ZM509.106 361.65C508.65 361.63 508.218 361.446 507.887 361.133C507.557 360.819 507.352 360.397 507.309 359.944C507.318 359.468 507.509 359.013 507.843 358.673C508.177 358.333 508.629 358.134 509.106 358.115C509.35 358.097 509.595 358.129 509.826 358.209C510.057 358.289 510.269 358.417 510.448 358.583C510.628 358.748 510.771 358.95 510.869 359.173C510.967 359.397 511.017 359.639 511.017 359.883C511.017 360.127 510.967 360.368 510.869 360.592C510.771 360.816 510.628 361.017 510.448 361.183C510.269 361.349 510.057 361.476 509.826 361.556C509.595 361.637 509.35 361.669 509.106 361.65Z" fill="#292929"/>
<path d="M7.30613 535.231C8.85372 535.222 10.3593 534.728 11.6096 533.818C12.8599 532.908 13.7915 531.628 14.2724 530.16H153.109L177.308 492.171H311.882V488.688H176.201L151.971 526.605H14.4166C13.9524 524.918 12.899 523.453 11.4467 522.474C9.99433 521.495 8.23895 521.067 6.49775 521.267C4.75655 521.466 3.14442 522.281 1.95272 523.564C0.761032 524.846 0.0684055 526.512 1.52588e-05 528.259C1.52588e-05 532.061 3.27464 535.231 7.30613 535.231ZM7.30613 526.404C7.78703 526.427 8.24177 526.63 8.58029 526.971C8.91882 527.313 9.11641 527.769 9.13393 528.249C9.09877 528.709 8.89007 529.139 8.54992 529.452C8.20977 529.764 7.76347 529.937 7.30097 529.934C7.07046 529.944 6.84031 529.908 6.62386 529.828C6.40741 529.748 6.20894 529.627 6.03993 529.47C5.87091 529.313 5.7347 529.125 5.63919 528.915C5.54367 528.705 5.49074 528.479 5.48346 528.249C5.47721 528.007 5.51988 527.767 5.60894 527.542C5.698 527.317 5.8316 527.112 6.00176 526.94C6.17192 526.768 6.37514 526.632 6.59925 526.54C6.82337 526.448 7.0638 526.402 7.30613 526.404Z" fill="#292929"/>
<path d="M383.996 626.669C385.549 626.656 387.059 626.157 388.313 625.243C389.568 624.329 390.503 623.045 390.988 621.572H393.346V618.012H391.122C390.664 616.318 389.612 614.845 388.158 613.86C386.703 612.876 384.943 612.445 383.197 612.646C381.451 612.847 379.835 613.666 378.644 614.956C377.452 616.245 376.764 617.918 376.705 619.671C376.705 623.499 379.979 626.669 383.996 626.669ZM383.996 617.842C384.478 617.855 384.936 618.052 385.277 618.392C385.618 618.733 385.816 619.19 385.829 619.671C385.796 620.132 385.588 620.563 385.247 620.877C384.906 621.19 384.459 621.361 383.996 621.356C383.765 621.367 383.535 621.331 383.319 621.252C383.103 621.172 382.905 621.05 382.737 620.893C382.568 620.736 382.433 620.547 382.339 620.337C382.245 620.128 382.194 619.901 382.188 619.671C382.183 619.432 382.226 619.193 382.314 618.971C382.403 618.748 382.535 618.545 382.704 618.375C382.872 618.204 383.073 618.069 383.295 617.978C383.517 617.886 383.755 617.84 383.996 617.842Z" fill="#292929"/>
<path d="M545.441 687.089L502.582 618.258H385.365V621.813H502.582L545.441 690.675H608.508V687.089H545.441Z" fill="#292929"/>
<path d="M622.353 688.333C622.293 686.58 621.605 684.907 620.414 683.617C619.223 682.328 617.607 681.508 615.861 681.307C614.115 681.106 612.354 681.537 610.9 682.522C609.446 683.507 608.394 684.98 607.936 686.673H605.702V690.27H608.07C608.559 691.739 609.494 693.02 610.747 693.933C611.999 694.847 613.506 695.348 615.057 695.366C616.957 695.39 618.789 694.664 620.155 693.347C621.521 692.03 622.311 690.228 622.353 688.333ZM616.89 688.333C616.884 688.564 616.832 688.791 616.737 689.002C616.641 689.212 616.505 689.402 616.335 689.559C616.165 689.716 615.965 689.837 615.748 689.916C615.53 689.995 615.299 690.03 615.067 690.018C614.603 690.027 614.153 689.857 613.812 689.543C613.47 689.229 613.263 688.795 613.234 688.333C613.25 687.855 613.449 687.402 613.79 687.066C614.131 686.731 614.588 686.538 615.067 686.529C615.308 686.523 615.547 686.565 615.77 686.654C615.994 686.742 616.197 686.874 616.368 687.042C616.539 687.211 616.675 687.412 616.766 687.633C616.857 687.855 616.903 688.093 616.9 688.333H616.89Z" fill="#292929"/>
<path d="M467.957 655.635C464.45 653.955 460.233 655.512 458.426 659.232C457.742 660.614 457.523 662.179 457.801 663.695C458.079 665.211 458.84 666.597 459.971 667.648L413.354 766.155L425.052 805.557L405.589 844.383H409.611L428.306 807.129L416.587 767.722L463.137 669.338C464.868 669.668 466.66 669.367 468.187 668.491C469.715 667.615 470.877 666.222 471.462 664.564C472.048 662.905 472.018 661.093 471.379 659.455C470.739 657.816 469.533 656.461 467.977 655.635H467.957ZM466.34 663.07C466.237 663.276 466.095 663.459 465.921 663.61C465.747 663.76 465.544 663.875 465.326 663.948C465.107 664.02 464.876 664.049 464.647 664.032C464.417 664.016 464.193 663.954 463.987 663.851C463.55 663.641 463.214 663.267 463.054 662.81C462.894 662.353 462.922 661.852 463.132 661.415C463.343 660.979 463.718 660.645 464.176 660.485C464.633 660.325 465.136 660.353 465.573 660.563C465.796 660.668 465.995 660.819 466.157 661.006C466.319 661.193 466.44 661.411 466.512 661.647C466.585 661.882 466.608 662.131 466.579 662.376C466.55 662.621 466.47 662.857 466.345 663.07H466.34Z" fill="#292929"/>
<path d="M475.911 679.701C472.379 677.995 468.08 679.655 466.294 683.333C465.63 684.732 465.422 686.303 465.699 687.825C465.976 689.347 466.724 690.745 467.838 691.821L433.954 764.074L445.683 803.409L425.088 844.393H429.109L448.901 804.991L437.157 765.662L470.989 693.511C472.581 693.781 474.217 693.536 475.659 692.812C477.101 692.089 478.274 690.924 479.006 689.488C480.808 685.8 479.402 681.381 475.911 679.701ZM474.223 687.161C474.131 687.386 473.994 687.591 473.821 687.761C473.647 687.931 473.44 688.064 473.213 688.152C472.985 688.239 472.743 688.279 472.499 688.27C472.256 688.26 472.017 688.2 471.798 688.095C471.578 687.989 471.383 687.84 471.224 687.656C471.064 687.472 470.945 687.257 470.872 687.025C470.799 686.793 470.774 686.549 470.8 686.307C470.825 686.065 470.9 685.831 471.02 685.62C471.106 685.386 471.239 685.172 471.413 684.993C471.586 684.814 471.795 684.673 472.026 684.579C472.257 684.485 472.506 684.441 472.755 684.449C473.005 684.457 473.25 684.517 473.475 684.625C473.699 684.733 473.899 684.887 474.061 685.077C474.222 685.267 474.342 685.489 474.412 685.728C474.483 685.966 474.502 686.217 474.47 686.464C474.437 686.711 474.353 686.949 474.223 687.161Z" fill="#292929"/>
<path d="M797.874 455.138L809.315 480.005L799.017 519.823L838.838 594.629H842.895L802.22 518.143L812.445 478.324L800.964 453.329C802.064 452.251 802.782 450.844 803.009 449.321C803.236 447.799 802.959 446.244 802.22 444.893C800.253 441.26 795.98 439.847 792.545 441.677C791.022 442.554 789.865 443.948 789.286 445.605C788.707 447.262 788.745 449.072 789.391 450.704C790.038 452.336 791.251 453.682 792.809 454.496C794.368 455.31 796.167 455.537 797.88 455.138H797.874ZM795.089 446.506C795.516 446.278 796.017 446.228 796.481 446.369C796.945 446.509 797.334 446.827 797.563 447.254C797.792 447.68 797.841 448.18 797.701 448.643C797.56 449.106 797.241 449.494 796.814 449.722C796.399 449.932 795.921 449.975 795.475 449.843C795.03 449.711 794.652 449.414 794.42 449.013C794.291 448.807 794.207 448.576 794.171 448.336C794.135 448.095 794.149 447.85 794.212 447.616C794.275 447.381 794.385 447.161 794.536 446.97C794.686 446.78 794.875 446.622 795.089 446.506Z" fill="#292929"/>
<path d="M808.569 594.629H812.636L774.422 522.818L784.719 483.077L764.237 443.603C765.311 442.483 766.007 441.055 766.227 439.52C766.446 437.985 766.179 436.42 765.463 435.044C763.532 431.447 759.197 429.973 755.68 431.822C752.272 433.605 751.015 438.07 752.931 441.677C753.721 443.082 754.94 444.199 756.411 444.865C757.881 445.531 759.527 445.712 761.107 445.381L781.532 484.809L771.235 524.503L808.569 594.629ZM760.026 439.945C759.603 440.126 759.13 440.146 758.694 440.002C758.257 439.858 757.889 439.56 757.657 439.164C757.423 438.746 757.359 438.254 757.48 437.791C757.601 437.327 757.897 436.928 758.306 436.678C758.522 436.566 758.759 436.498 759.002 436.479C759.245 436.46 759.489 436.49 759.72 436.568C759.951 436.645 760.164 436.768 760.347 436.929C760.529 437.09 760.678 437.286 760.783 437.505C760.995 437.931 761.035 438.422 760.894 438.876C760.753 439.331 760.442 439.714 760.026 439.945Z" fill="#292929"/>
<path d="M552.051 548.548L563.471 573.415L553.21 613.208L593.005 688.035H597.072L556.397 611.523L566.623 571.704L555.151 546.735C556.243 545.651 556.954 544.243 557.178 542.723C557.403 541.203 557.129 539.651 556.397 538.299C554.466 534.62 550.167 533.253 546.707 535.057C543.247 536.86 542.017 541.222 543.947 544.885C544.693 546.312 545.896 547.449 547.365 548.113C548.835 548.777 550.485 548.931 552.051 548.548ZM549.287 539.891C549.504 539.785 549.74 539.722 549.981 539.708C550.223 539.693 550.465 539.726 550.693 539.806C550.922 539.885 551.132 540.009 551.312 540.17C551.492 540.331 551.639 540.526 551.743 540.744C551.947 541.159 551.983 541.637 551.842 542.078C551.701 542.519 551.394 542.888 550.986 543.107C550.784 543.221 550.561 543.292 550.331 543.318C550.1 543.344 549.867 543.323 549.645 543.257C549.423 543.192 549.216 543.082 549.037 542.936C548.858 542.789 548.71 542.608 548.602 542.404C548.469 542.197 548.382 541.965 548.345 541.723C548.308 541.48 548.322 541.233 548.386 540.996C548.451 540.759 548.564 540.539 548.719 540.348C548.874 540.158 549.068 540.002 549.287 539.891Z" fill="#292929"/>
<path d="M829.333 527.283L869.396 593.874H873.613L832.536 525.603C833.644 524.43 834.35 522.936 834.552 521.336C834.754 519.737 834.441 518.115 833.658 516.704C831.599 513.19 827.171 511.875 823.814 513.827C820.457 515.779 819.386 520.285 821.445 523.82C822.236 525.144 823.42 526.19 824.834 526.81C826.248 527.431 827.821 527.596 829.333 527.283ZM826.605 518.626C827.028 518.413 827.517 518.373 827.97 518.515C828.422 518.657 828.8 518.97 829.024 519.386C829.264 519.795 829.331 520.282 829.211 520.74C829.091 521.198 828.793 521.59 828.383 521.829C827.974 522.068 827.486 522.135 827.026 522.015C826.567 521.895 826.175 521.598 825.935 521.19C825.805 520.979 825.719 520.744 825.681 520.5C825.644 520.255 825.657 520.006 825.719 519.766C825.781 519.527 825.891 519.302 826.042 519.106C826.194 518.91 826.383 518.747 826.599 518.626H826.605Z" fill="#292929"/>
<path d="M518.904 589.168L571.684 688.405H575.885L522.07 587.436C523.182 586.276 523.893 584.791 524.1 583.198C524.306 581.606 523.998 579.989 523.218 578.584C521.159 575.023 516.705 573.76 513.353 575.686C510.001 577.613 508.92 582.145 510.985 585.679C511.776 587.012 512.964 588.065 514.384 588.69C515.804 589.316 517.384 589.483 518.904 589.168ZM516.154 580.511C516.363 580.398 516.592 580.328 516.828 580.305C517.064 580.282 517.302 580.306 517.529 580.377C517.755 580.447 517.966 580.562 518.147 580.715C518.328 580.867 518.477 581.055 518.584 581.266C518.716 581.466 518.806 581.691 518.848 581.928C518.89 582.164 518.884 582.406 518.829 582.64C518.774 582.873 518.672 583.093 518.53 583.286C518.387 583.479 518.206 583.641 517.999 583.762C517.791 583.883 517.561 583.961 517.323 583.991C517.084 584.02 516.842 584.001 516.611 583.934C516.381 583.868 516.166 583.755 515.98 583.602C515.794 583.45 515.642 583.262 515.531 583.049C515.396 582.844 515.305 582.613 515.263 582.372C515.221 582.13 515.229 581.882 515.288 581.644C515.346 581.406 515.454 581.182 515.603 580.987C515.752 580.792 515.939 580.63 516.154 580.511Z" fill="#292929"/>
<path d="M291.024 542.691H168.483L144.799 566.15H94.7942L82.952 554.421H44.5113C44.2221 553.116 43.4977 551.948 42.4566 551.108C41.4155 550.268 40.1195 549.806 38.7807 549.797C37.2251 549.835 35.7449 550.474 34.6513 551.578C33.5577 552.683 32.9358 554.168 32.9163 555.721C32.9257 557.272 33.5459 558.757 34.6431 559.856C35.7403 560.954 37.2264 561.578 38.7807 561.593C40.0703 561.584 41.323 561.163 42.3545 560.391C43.3861 559.618 44.1421 558.536 44.5113 557.303H82.9572L94.7994 569.12H144.804L168.489 545.615H291.029L291.024 542.691ZM38.7807 557.298C38.3931 557.246 38.0365 557.058 37.7744 556.768C37.5123 556.479 37.3617 556.106 37.3493 555.715C37.3586 555.34 37.5127 554.984 37.7794 554.719C38.0461 554.455 38.4049 554.304 38.7807 554.297C39.1696 554.286 39.547 554.429 39.8307 554.695C40.1143 554.961 40.281 555.327 40.2945 555.715C40.2795 556.118 40.1172 556.502 39.8383 556.793C39.5595 557.085 39.1832 557.264 38.7807 557.298Z" fill="#292929"/>
<path d="M554.616 737.809C556.164 737.794 557.669 737.297 558.921 736.387C560.173 735.477 561.108 734.2 561.597 732.733H561.695V729.137H561.731C561.267 727.45 560.213 725.985 558.76 725.006C557.307 724.027 555.551 723.599 553.81 723.8C552.069 724 550.456 724.816 549.265 726.099C548.074 727.382 547.382 729.048 547.315 730.796C547.31 734.614 550.584 737.809 554.616 737.809ZM554.616 728.957C555.093 728.98 555.544 729.18 555.881 729.519C556.217 729.857 556.414 730.31 556.433 730.786C556.402 731.244 556.196 731.674 555.858 731.986C555.521 732.298 555.076 732.47 554.616 732.466C554.385 732.477 554.154 732.442 553.937 732.363C553.72 732.285 553.521 732.164 553.352 732.007C553.182 731.851 553.045 731.662 552.949 731.453C552.853 731.243 552.8 731.016 552.793 730.786C552.79 730.546 552.834 730.307 552.925 730.085C553.015 729.862 553.149 729.659 553.319 729.489C553.488 729.318 553.691 729.184 553.913 729.092C554.136 729.001 554.375 728.955 554.616 728.957Z" fill="#292929"/>
<path d="M482.692 836.995C484.238 836.988 485.742 836.497 486.994 835.592C488.245 834.687 489.181 833.413 489.669 831.949H489.777V828.353C489.327 826.654 488.279 825.174 486.825 824.182C485.371 823.191 483.608 822.755 481.859 822.954C480.109 823.152 478.49 823.973 477.296 825.266C476.103 826.558 475.416 828.236 475.361 829.992C475.386 833.83 478.661 836.995 482.692 836.995ZM482.692 828.194C483.168 828.202 483.622 828.392 483.963 828.723C484.303 829.054 484.504 829.502 484.525 829.977C484.499 830.444 484.294 830.884 483.954 831.206C483.613 831.528 483.162 831.707 482.692 831.708C482.225 831.708 481.777 831.523 481.447 831.193C481.117 830.864 480.931 830.417 480.931 829.951C480.931 829.485 481.117 829.038 481.447 828.708C481.777 828.379 482.225 828.194 482.692 828.194Z" fill="#292929"/>
<path d="M375.727 607.186C377.275 607.175 378.782 606.68 380.034 605.771C381.287 604.861 382.222 603.583 382.708 602.115H382.801V598.519C382.366 596.806 381.323 595.309 379.866 594.304C378.41 593.3 376.637 592.856 374.878 593.056C373.119 593.255 371.491 594.084 370.297 595.389C369.103 596.694 368.424 598.386 368.384 600.152C368.436 603.99 371.705 607.186 375.727 607.186ZM375.727 598.334C376.207 598.35 376.664 598.548 377.004 598.888C377.344 599.227 377.543 599.683 377.56 600.163C377.529 600.625 377.322 601.057 376.981 601.371C376.64 601.685 376.19 601.856 375.727 601.848C375.494 601.861 375.262 601.828 375.043 601.749C374.824 601.671 374.623 601.55 374.452 601.393C374.281 601.236 374.144 601.046 374.048 600.834C373.952 600.623 373.899 600.395 373.894 600.163C373.889 599.921 373.933 599.681 374.023 599.457C374.113 599.233 374.248 599.029 374.42 598.859C374.591 598.688 374.795 598.553 375.019 598.463C375.244 598.373 375.485 598.329 375.727 598.334Z" fill="#292929"/>
<path d="M726.049 358.306L726.811 359.652H856.133L920.822 247.879L920.765 247.781H914.69L914.741 247.879L853.1 354.381H729.865L668.229 247.879L728.546 143.612V136.106H726.811L662.153 247.879L726.049 358.306Z" fill="#292929"/>
<path d="M725.637 137.59L664.156 243.876H670.257L731.718 137.59L667.822 27.1379L667.055 25.7969H548.643V31.0632H664.001L725.637 137.59Z" fill="#292929"/>
<path d="M895.732 251.043L845.413 337.996H850.572L900.86 251.043L846.7 157.417L846.077 156.318H736.465L684.071 246.856H689.23L739.039 160.783H843.513L895.732 251.043Z" fill="#292929"/>
<path d="M686.625 254.994C688.173 254.982 689.677 254.483 690.925 253.569C692.172 252.655 693.1 251.372 693.576 249.903H693.689V246.306C693.419 244.957 692.769 243.713 691.817 242.718C690.865 241.724 689.649 241.02 688.311 240.688C686.974 240.357 685.569 240.412 684.261 240.847C682.953 241.282 681.797 242.079 680.926 243.145C680.055 244.212 679.505 245.503 679.342 246.869C679.178 248.234 679.407 249.618 680.002 250.859C680.596 252.1 681.532 253.147 682.7 253.877C683.869 254.607 685.221 254.991 686.599 254.984L686.625 254.994ZM686.625 246.147C687.103 246.172 687.555 246.372 687.893 246.71C688.232 247.048 688.433 247.499 688.458 247.976C688.419 248.432 688.208 248.857 687.868 249.165C687.528 249.473 687.084 249.641 686.625 249.635C686.393 249.651 686.161 249.62 685.941 249.544C685.721 249.469 685.519 249.35 685.346 249.196C685.173 249.041 685.032 248.854 684.933 248.644C684.833 248.435 684.777 248.208 684.766 247.976C684.765 247.733 684.812 247.493 684.905 247.268C684.999 247.044 685.136 246.841 685.309 246.67C685.482 246.5 685.688 246.366 685.914 246.276C686.14 246.186 686.382 246.142 686.625 246.147Z" fill="#292929"/>
<path d="M673.248 14.0673C674.797 14.0576 676.303 13.563 677.555 12.6531C678.807 11.7433 679.741 10.4642 680.225 8.99631H680.323V5.39985H680.359C680.094 4.04794 679.449 2.79909 678.5 1.79915C677.551 0.799209 676.336 0.0894449 674.997 -0.247255C673.658 -0.583956 672.252 -0.533698 670.941 -0.102347C669.63 0.329005 668.469 1.12364 667.593 2.18877C666.718 3.25389 666.164 4.54555 665.997 5.91289C665.83 7.28024 666.056 8.66684 666.649 9.91076C667.242 11.1547 668.177 12.2046 669.346 12.9379C670.515 13.6711 671.868 14.0575 673.248 14.0519V14.0673ZM673.248 5.24571C673.723 5.26452 674.173 5.46026 674.509 5.7942C674.846 6.12814 675.044 6.57596 675.066 7.04908C675.036 7.51028 674.832 7.94291 674.494 8.25954C674.157 8.57618 673.712 8.7532 673.248 8.75484C673.016 8.76306 672.785 8.72538 672.567 8.64397C672.35 8.56256 672.151 8.43902 671.981 8.28047C671.812 8.12193 671.676 7.93151 671.58 7.72017C671.485 7.50883 671.432 7.28075 671.426 7.04908C671.424 6.81037 671.47 6.57367 671.561 6.35292C671.652 6.13217 671.786 5.93183 671.956 5.76375C672.126 5.59567 672.328 5.46325 672.55 5.37428C672.772 5.2853 673.009 5.24158 673.248 5.24571Z" fill="#292929"/>
<path d="M596.609 52.8425C598.157 52.8286 599.662 52.3317 600.913 51.4214C602.165 50.5111 603.099 49.2331 603.586 47.7663H603.694V44.1699C603.423 42.8221 602.774 41.5788 601.823 40.585C600.871 39.5913 599.656 38.8879 598.319 38.5569C596.982 38.226 595.579 38.2812 594.272 38.716C592.965 39.1508 591.809 39.9473 590.939 41.0127C590.069 42.078 589.52 43.3684 589.356 44.7332C589.193 46.098 589.422 47.481 590.016 48.721C590.61 49.961 591.546 51.0068 592.713 51.7365C593.88 52.4663 595.231 52.8498 596.609 52.8425ZM596.609 44.0363C597.089 44.0414 597.548 44.2323 597.89 44.5687C598.232 44.9051 598.43 45.3607 598.442 45.8396C598.404 46.2966 598.194 46.7221 597.853 47.0302C597.513 47.3383 597.068 47.5059 596.609 47.4992C596.146 47.5201 595.693 47.3574 595.35 47.0465C595.006 46.7356 594.8 46.3017 594.776 45.8396C594.772 45.5997 594.818 45.3614 594.909 45.1393C595 44.9172 595.135 44.7159 595.306 44.5473C595.478 44.3788 595.681 44.2467 595.905 44.1588C596.129 44.071 596.368 44.0293 596.609 44.0363Z" fill="#292929"/>
<path d="M546.99 36.9407C548.537 36.9304 550.042 36.4354 551.292 35.5255C552.542 34.6155 553.474 33.3368 553.956 31.8697H554.064V28.2733H554.1C553.836 26.9213 553.191 25.6725 552.242 24.6726C551.292 23.6726 550.077 22.9629 548.739 22.6262C547.4 22.2895 545.993 22.3397 544.682 22.7711C543.371 23.2024 542.21 23.9971 541.335 25.0622C540.46 26.1273 539.906 27.419 539.739 28.7863C539.572 30.1537 539.798 31.5403 540.391 32.7842C540.984 34.0281 541.919 35.078 543.088 35.8113C544.256 36.5446 545.61 36.9309 546.99 36.9253V36.9407ZM546.99 28.114C547.466 28.1314 547.919 28.3262 548.258 28.66C548.597 28.9939 548.799 29.4425 548.823 29.9174C548.791 30.3808 548.584 30.8148 548.243 31.1322C547.903 31.4496 547.456 31.6268 546.99 31.6282C546.757 31.6365 546.525 31.5987 546.306 31.5171C546.088 31.4355 545.888 31.3117 545.718 31.1527C545.547 30.9937 545.41 30.8028 545.314 30.5908C545.218 30.3788 545.164 30.1499 545.157 29.9174C545.156 29.6782 545.204 29.4412 545.296 29.2204C545.388 28.9996 545.523 28.7994 545.694 28.6315C545.865 28.4635 546.067 28.3313 546.29 28.2424C546.512 28.1535 546.75 28.1099 546.99 28.114Z" fill="#292929"/>
<path d="M362.541 52.2515C364.09 52.2457 365.598 51.7525 366.851 50.8421C368.103 49.9317 369.036 48.6505 369.517 47.1805H508.338L532.538 9.19669H667.065V5.68243H532.548L508.349 43.5995H369.641C369.376 42.2471 368.731 40.9979 367.781 39.9978C366.831 38.9978 365.615 38.2881 364.276 37.9518C362.937 37.6154 361.53 37.6663 360.219 38.0985C358.908 38.5307 357.747 39.3263 356.872 40.3924C355.997 41.4585 355.444 42.751 355.278 44.1189C355.112 45.4869 355.34 46.8737 355.934 48.1174C356.529 49.3611 357.465 50.4102 358.635 51.1423C359.805 51.8744 361.16 52.2591 362.541 52.2515ZM362.541 43.4299C363.016 43.4475 363.467 43.6426 363.804 43.9767C364.142 44.3108 364.342 44.7593 364.363 45.2333C364.337 45.6967 364.133 46.1322 363.794 46.4497C363.454 46.7672 363.006 46.9424 362.541 46.939C362.308 46.9494 362.075 46.9132 361.856 46.8326C361.638 46.752 361.437 46.6286 361.267 46.4698C361.097 46.3109 360.96 46.1196 360.865 45.9073C360.77 45.695 360.718 45.4658 360.713 45.2333C360.711 44.9943 360.758 44.7575 360.849 44.5367C360.941 44.3159 361.076 44.1157 361.246 43.9477C361.416 43.7797 361.619 43.6473 361.841 43.5584C362.063 43.4695 362.301 43.4258 362.541 43.4299Z" fill="#292929"/>
<path d="M747.72 138.52C749.274 138.511 750.786 138.013 752.041 137.098C753.296 136.184 754.23 134.898 754.712 133.424H757.086V129.827H754.846C754.382 128.141 753.329 126.676 751.876 125.697C750.424 124.717 748.669 124.289 746.927 124.489C745.186 124.689 743.574 125.504 742.382 126.786C741.191 128.068 740.498 129.734 740.43 131.482C740.43 135.325 743.72 138.52 747.72 138.52ZM747.72 129.694C747.958 129.681 748.196 129.716 748.419 129.798C748.642 129.88 748.846 130.006 749.019 130.17C749.192 130.333 749.329 130.53 749.423 130.748C749.517 130.966 749.566 131.201 749.566 131.438C749.566 131.675 749.517 131.91 749.423 132.128C749.329 132.346 749.192 132.543 749.019 132.706C748.846 132.869 748.642 132.996 748.419 133.078C748.196 133.16 747.958 133.195 747.72 133.182C747.483 133.195 747.245 133.16 747.022 133.078C746.799 132.996 746.594 132.869 746.422 132.706C746.249 132.543 746.111 132.346 746.017 132.128C745.923 131.91 745.875 131.675 745.875 131.438C745.875 131.201 745.923 130.966 746.017 130.748C746.111 130.53 746.249 130.333 746.422 130.17C746.594 130.006 746.799 129.88 747.022 129.798C747.245 129.716 747.483 129.681 747.72 129.694Z" fill="#292929"/>
<path d="M908.187 198.843L865.323 130.007H754.8V133.573H865.323L908.187 202.43H971.27V198.843H908.187Z" fill="#292929"/>
<path d="M830.718 167.441C827.202 165.73 822.995 167.292 821.178 171.002C820.493 172.387 820.274 173.955 820.552 175.475C820.831 176.994 821.591 178.384 822.722 179.438L776.116 277.945L787.809 317.347L768.305 356.163H772.326L791.032 318.909L779.324 279.507L825.853 181.092C827.577 181.425 829.364 181.129 830.889 180.259C832.414 179.389 833.575 178.003 834.163 176.351C834.751 174.7 834.727 172.893 834.094 171.258C833.461 169.623 832.261 168.269 830.713 167.441H830.718ZM829.081 174.829C828.98 175.035 828.839 175.22 828.667 175.372C828.495 175.523 828.294 175.64 828.076 175.714C827.859 175.789 827.629 175.82 827.399 175.805C827.17 175.791 826.945 175.732 826.738 175.631C826.329 175.419 826.015 175.059 825.862 174.625C825.709 174.19 825.728 173.714 825.915 173.293C826.004 173.069 826.138 172.865 826.309 172.694C826.479 172.523 826.684 172.389 826.908 172.3C827.133 172.211 827.374 172.169 827.616 172.176C827.857 172.183 828.095 172.24 828.314 172.343C828.54 172.443 828.741 172.59 828.905 172.775C829.069 172.959 829.192 173.176 829.264 173.412C829.337 173.647 829.358 173.896 829.327 174.14C829.295 174.385 829.211 174.62 829.081 174.829Z" fill="#292929"/>
<path d="M838.648 191.481C835.105 189.775 830.827 191.409 829.055 195.078C828.381 196.48 828.165 198.057 828.437 199.589C828.71 201.12 829.457 202.527 830.574 203.611L796.706 275.854L808.435 315.184L787.84 356.173H791.871L811.647 316.746L799.924 277.416L833.741 205.271C835.333 205.545 836.971 205.305 838.417 204.585C839.863 203.865 841.04 202.703 841.778 201.269C843.56 197.554 842.144 193.141 838.648 191.481ZM836.964 198.915C836.742 199.311 836.388 199.615 835.963 199.775C835.538 199.935 835.07 199.94 834.642 199.789C834.219 199.569 833.895 199.199 833.733 198.751C833.572 198.304 833.586 197.812 833.772 197.374C833.978 196.923 834.355 196.573 834.821 196.399C835.286 196.226 835.801 196.244 836.253 196.449C836.671 196.687 836.978 197.078 837.111 197.538C837.244 197.999 837.191 198.493 836.964 198.915Z" fill="#292929"/>
<path d="M592.402 43.9384H530.499L512.756 67.4182H456.789L444.947 55.6937H406.496C406.208 54.3913 405.486 53.2249 404.448 52.385C403.41 51.5451 402.117 51.0814 400.781 51.0696C399.224 51.1068 397.744 51.7451 396.65 52.85C395.556 53.955 394.934 55.4404 394.916 56.9935C394.927 58.5447 395.547 60.0296 396.644 61.1288C397.741 62.2281 399.226 62.8537 400.781 62.8712C402.068 62.8599 403.317 62.4371 404.346 61.665C405.374 60.8929 406.128 59.812 406.496 58.5811H444.947L456.789 70.3981H512.756L530.499 46.8926H592.402V43.9384ZM400.786 58.5708C400.397 58.5196 400.039 58.3315 399.776 58.0405C399.514 57.7495 399.364 57.3746 399.354 56.9833C399.362 56.6084 399.516 56.2513 399.783 55.9876C400.05 55.7239 400.41 55.5743 400.786 55.5704C401.171 55.562 401.545 55.7056 401.825 55.97C402.106 56.2345 402.27 56.5985 402.284 56.9833C402.27 57.3842 402.11 57.7662 401.834 58.0583C401.558 58.3503 401.186 58.5325 400.786 58.5708Z" fill="#292929"/>
<path d="M698.756 389.764C697.968 388.428 696.776 387.375 695.352 386.758C693.927 386.14 692.342 385.989 690.826 386.327L620.185 267.094L539.833 266.847L471.355 151.247L468.322 153.03L536.801 268.579L617.091 268.872L687.67 388.069C686.521 389.206 685.793 390.698 685.606 392.302C685.419 393.906 685.784 395.526 686.64 396.896C688.7 400.358 693.056 401.602 696.423 399.578C698.034 398.583 699.185 396.992 699.622 395.152C700.059 393.312 699.748 391.375 698.756 389.764ZM691.146 394.25C690.924 393.83 690.867 393.344 690.984 392.885C691.101 392.426 691.384 392.026 691.779 391.763C692.194 391.552 692.674 391.508 693.12 391.64C693.567 391.772 693.945 392.07 694.178 392.472C694.429 392.86 694.516 393.331 694.419 393.783C694.323 394.234 694.051 394.629 693.663 394.882C693.458 395.01 693.228 395.095 692.989 395.132C692.749 395.17 692.505 395.159 692.27 395.1C692.035 395.041 691.814 394.935 691.621 394.789C691.428 394.643 691.266 394.46 691.146 394.25Z" fill="#292929"/>
<path d="M523.605 188.239L521.092 189.724L556.963 253.34L647.067 252.143L672.507 295.085L668.388 311.223L687.953 344.264C686.969 345.17 686.323 346.384 686.121 347.705C685.919 349.026 686.173 350.376 686.841 351.534C687.67 352.851 688.978 353.797 690.491 354.174C692.004 354.55 693.604 354.328 694.956 353.553C696.286 352.748 697.247 351.455 697.633 349.95C698.018 348.446 697.796 346.85 697.015 345.507C696.348 344.405 695.342 343.547 694.148 343.059C692.954 342.572 691.634 342.481 690.383 342.8L670.818 309.764L675.05 293.574L649.585 250.586L559.502 251.835L523.605 188.239ZM692.783 349.725C692.456 349.911 692.07 349.961 691.707 349.865C691.344 349.769 691.033 349.534 690.842 349.212C690.737 349.054 690.666 348.876 690.632 348.69C690.598 348.503 690.602 348.312 690.644 348.128C690.686 347.943 690.765 347.769 690.876 347.615C690.986 347.461 691.127 347.332 691.29 347.234C691.453 347.117 691.639 347.036 691.836 346.995C692.033 346.954 692.236 346.954 692.433 346.995C692.63 347.036 692.816 347.117 692.98 347.233C693.144 347.35 693.281 347.499 693.385 347.671C693.488 347.843 693.555 348.034 693.58 348.233C693.606 348.432 693.59 348.634 693.533 348.827C693.477 349.019 693.381 349.198 693.252 349.352C693.122 349.506 692.963 349.631 692.783 349.72V349.725Z" fill="#292929"/>
<path d="M521.566 458.4L494.246 402.712L449.411 397.713L441.065 380.665H437.157L446.244 399.249L491.038 404.274L518.296 459.865C516.98 461.02 516.122 462.607 515.877 464.339C515.632 466.071 516.017 467.834 516.961 469.307C517.906 470.781 519.348 471.868 521.027 472.372C522.705 472.877 524.509 472.765 526.112 472.057C529.572 470.371 530.993 466.061 529.232 462.428C528.532 461.045 527.418 459.914 526.044 459.192C524.67 458.47 523.104 458.193 521.566 458.4ZM523.702 467.135C523.488 467.247 523.253 467.315 523.011 467.334C522.769 467.353 522.527 467.323 522.297 467.245C522.067 467.168 521.856 467.045 521.675 466.884C521.495 466.723 521.349 466.527 521.246 466.307C521.055 465.87 521.034 465.377 521.189 464.926C521.343 464.474 521.661 464.096 522.08 463.867C522.512 463.698 522.991 463.698 523.423 463.865C523.855 464.033 524.208 464.356 524.413 464.771C524.521 464.971 524.588 465.19 524.611 465.416C524.634 465.642 524.611 465.87 524.545 466.088C524.479 466.305 524.371 466.507 524.226 466.682C524.081 466.858 523.903 467.003 523.702 467.109V467.135Z" fill="#292929"/>
<path d="M513.353 531.604L496.45 497.15L501.918 481.346L479.938 436.482L448.324 425.606L426.298 380.665H423.039L445.693 426.906L477.24 437.803L499.22 482.615L493.845 498.393L510.779 532.873C509.725 533.695 508.987 534.854 508.687 536.155C508.387 537.456 508.544 538.82 509.131 540.019C509.822 541.424 511.043 542.498 512.526 543.004C514.01 543.511 515.634 543.408 517.042 542.719C518.45 542.031 519.526 540.812 520.034 539.331C520.541 537.851 520.438 536.23 519.748 534.825C519.164 533.679 518.229 532.749 517.079 532.17C515.929 531.59 514.624 531.392 513.353 531.604ZM515.094 538.72C514.923 538.8 514.739 538.847 514.55 538.856C514.362 538.865 514.174 538.838 513.996 538.774C513.819 538.711 513.655 538.613 513.516 538.486C513.376 538.359 513.263 538.207 513.183 538.036C513.013 537.696 512.981 537.302 513.096 536.939C513.21 536.576 513.461 536.271 513.796 536.089C513.971 535.988 514.164 535.924 514.365 535.9C514.565 535.877 514.768 535.895 514.962 535.953C515.155 536.012 515.334 536.109 515.488 536.239C515.642 536.37 515.767 536.53 515.857 536.711C515.946 536.892 515.997 537.089 516.006 537.29C516.016 537.491 515.984 537.692 515.912 537.881C515.841 538.069 515.731 538.241 515.59 538.385C515.449 538.529 515.28 538.643 515.094 538.72Z" fill="#292929"/>
<path d="M448.839 500.145L424.084 449.697L432.183 426.166L409.889 380.665H406.686L429.619 427.419L421.334 450.997L446.049 501.347C445.025 502.204 444.318 503.376 444.038 504.679C443.758 505.982 443.922 507.341 444.504 508.54C445.201 509.911 446.406 510.958 447.862 511.459C449.319 511.959 450.914 511.874 452.309 511.222C453.009 510.89 453.636 510.422 454.153 509.847C454.671 509.271 455.068 508.598 455.323 507.868C455.578 507.138 455.685 506.364 455.638 505.592C455.59 504.82 455.39 504.066 455.049 503.372C454.49 502.246 453.587 501.328 452.471 500.748C451.355 500.168 450.083 499.957 448.839 500.145ZM450.353 507.338C450.003 507.445 449.627 507.429 449.289 507.291C448.95 507.153 448.669 506.903 448.494 506.583C448.334 506.246 448.301 505.862 448.403 505.503C448.504 505.144 448.732 504.834 449.045 504.63C449.225 504.531 449.423 504.469 449.627 504.448C449.832 504.428 450.038 504.449 450.234 504.511C450.43 504.573 450.611 504.675 450.766 504.809C450.921 504.943 451.048 505.108 451.137 505.293C451.226 505.477 451.276 505.678 451.285 505.883C451.294 506.088 451.26 506.292 451.187 506.484C451.113 506.675 451.002 506.85 450.858 506.997C450.715 507.144 450.543 507.26 450.353 507.338Z" fill="#292929"/>
<path d="M519.954 992.46H616.056L661.19 1070.49H667.271L619.083 987.194H519.954V992.46Z" fill="#292929"/>
<path d="M250.792 996.997L293.65 1071H299.736L253.845 991.705H154.7V996.997H250.792Z" fill="#292929"/>
<path d="M831.475 611.99L830.719 610.675H701.387L636.708 722.443L636.77 722.52H642.84L642.789 722.443L704.414 615.916H827.691L889.327 722.443L828.999 826.679V834.216H830.719L895.372 722.443L831.475 611.99Z" fill="#292929"/>
<path d="M660.675 718.127L710.392 632.228H705.233L655.521 718.127L709.681 811.712L710.34 812.853H819.942L873.773 719.812H868.619L817.378 808.419H712.894L660.675 718.127Z" fill="#292929"/>
<path d="M690.852 1080.29H820.21L820.956 1078.97L884.878 968.518L822.645 860.989H818.475V864.308L878.793 968.518L817.162 1075.07H693.895L632.259 968.518L632.305 968.446H626.245L626.184 968.518L690.852 1080.29Z" fill="#292929"/>
<path d="M320.418 860.624L321.175 859.283H450.523L515.176 971.056L515.14 971.174H509.069L509.105 971.056L447.49 864.544H324.218L262.603 971.056L322.91 1075.31V1082.82H321.175L256.517 971.056L320.418 860.624Z" fill="#292929"/>
<path d="M631.291 967.028V972.273H510.439L445.771 860.501L445.817 860.403H451.877L451.846 860.501L513.467 967.028H631.291Z" fill="#292929"/>
<path d="M441.08 1061.49L440.431 1062.61H330.84L277.009 969.566H282.137L333.419 1058.17H437.867L490.096 967.906L437.867 877.614H437.342V873.155H440.431L495.26 967.906L441.08 1061.49Z" fill="#292929"/>
<path d="M398.706 1086.51C400.253 1086.52 401.763 1086.03 403.011 1085.12C404.259 1084.2 405.179 1082.91 405.636 1081.44H452.052L495.817 1015.5H558.874V1011.91H495.837L452.073 1077.91H405.78C405.393 1076.34 404.485 1074.95 403.204 1073.97C401.923 1072.98 400.344 1072.45 398.726 1072.48C394.607 1072.48 391.348 1075.62 391.348 1079.52C391.348 1083.42 394.566 1086.51 398.706 1086.51ZM398.706 1077.73C398.938 1077.73 399.169 1077.77 399.384 1077.86C399.599 1077.95 399.793 1078.09 399.956 1078.25C400.119 1078.42 400.247 1078.61 400.333 1078.83C400.419 1079.05 400.461 1079.28 400.456 1079.51C400.456 1079.99 400.264 1080.46 399.921 1080.8C399.578 1081.14 399.113 1081.33 398.628 1081.33C398.144 1081.33 397.679 1081.14 397.336 1080.8C396.993 1080.46 396.8 1079.99 396.8 1079.51C396.798 1079.26 396.846 1079.02 396.942 1078.8C397.039 1078.57 397.181 1078.37 397.36 1078.2C397.539 1078.03 397.751 1077.9 397.983 1077.82C398.215 1077.74 398.461 1077.71 398.706 1077.73Z" fill="#292929"/>
<path d="M565.464 1007.22C563.913 1007.23 562.406 1007.73 561.154 1008.64C559.903 1009.56 558.97 1010.84 558.487 1012.31H556.129V1015.91H558.364C558.821 1017.6 559.873 1019.08 561.327 1020.06C562.78 1021.05 564.54 1021.48 566.286 1021.28C568.032 1021.08 569.647 1020.26 570.839 1018.97C572.031 1017.68 572.72 1016.01 572.78 1014.25C572.77 1010.41 569.496 1007.22 565.464 1007.22ZM565.464 1016.06C564.987 1016.04 564.537 1015.84 564.2 1015.5C563.863 1015.17 563.664 1014.71 563.641 1014.24C563.678 1013.78 563.885 1013.35 564.223 1013.04C564.561 1012.73 565.004 1012.56 565.464 1012.55C565.93 1012.54 566.383 1012.71 566.726 1013.02C567.069 1013.34 567.274 1013.77 567.297 1014.24C567.297 1014.48 567.25 1014.72 567.157 1014.94C567.065 1015.16 566.93 1015.36 566.76 1015.53C566.59 1015.7 566.387 1015.83 566.165 1015.93C565.943 1016.02 565.705 1016.06 565.464 1016.06Z" fill="#292929"/>
<path d="M663.975 1064.15C662.428 1064.16 660.922 1064.66 659.671 1065.57C658.42 1066.48 657.486 1067.75 656.999 1069.22H656.901V1072.82C657.167 1074.17 657.812 1075.42 658.763 1076.41C659.713 1077.41 660.929 1078.12 662.268 1078.46C663.607 1078.79 665.014 1078.74 666.325 1078.31C667.636 1077.88 668.796 1077.08 669.67 1076.02C670.545 1074.95 671.097 1073.66 671.263 1072.29C671.429 1070.92 671.201 1069.54 670.606 1068.29C670.012 1067.05 669.075 1066 667.906 1065.27C666.736 1064.54 665.382 1064.15 664.001 1064.16L663.975 1064.15ZM663.975 1072.97C663.499 1072.96 663.046 1072.77 662.707 1072.43C662.369 1072.1 662.171 1071.65 662.153 1071.17C662.18 1070.71 662.385 1070.27 662.724 1069.96C663.063 1069.64 663.511 1069.46 663.975 1069.47C664.209 1069.46 664.442 1069.49 664.662 1069.57C664.882 1069.65 665.083 1069.78 665.254 1069.93C665.426 1070.09 665.564 1070.28 665.661 1070.5C665.758 1070.71 665.811 1070.94 665.819 1071.17C665.818 1071.41 665.77 1071.65 665.676 1071.87C665.583 1072.09 665.447 1072.29 665.275 1072.46C665.104 1072.63 664.9 1072.76 664.677 1072.85C664.454 1072.93 664.216 1072.98 663.975 1072.97Z" fill="#292929"/>
<path d="M436.961 867.622C435.418 867.633 433.917 868.126 432.668 869.03C431.419 869.935 430.484 871.207 429.995 872.667H429.887V876.299C430.156 877.65 430.805 878.896 431.758 879.892C432.71 880.889 433.927 881.594 435.266 881.927C436.605 882.259 438.012 882.204 439.321 881.769C440.63 881.334 441.788 880.536 442.66 879.469C443.532 878.401 444.082 877.109 444.246 875.741C444.409 874.374 444.179 872.988 443.584 871.746C442.988 870.504 442.05 869.457 440.88 868.727C439.71 867.996 438.356 867.613 436.976 867.622H436.961ZM436.961 876.448C436.485 876.433 436.032 876.239 435.694 875.904C435.356 875.57 435.158 875.12 435.138 874.645C435.17 874.183 435.375 873.751 435.713 873.434C436.051 873.118 436.497 872.941 436.961 872.939C437.194 872.93 437.427 872.968 437.646 873.048C437.865 873.129 438.066 873.253 438.237 873.411C438.408 873.569 438.546 873.76 438.644 873.972C438.741 874.183 438.796 874.412 438.804 874.645C438.806 874.885 438.759 875.123 438.666 875.345C438.574 875.567 438.437 875.768 438.265 875.936C438.093 876.105 437.889 876.237 437.665 876.325C437.441 876.413 437.202 876.455 436.961 876.448Z" fill="#292929"/>
<path d="M278.729 960.205C277.184 960.212 275.68 960.703 274.43 961.608C273.179 962.513 272.244 963.787 271.757 965.25H271.659V968.847C271.927 970.196 272.574 971.441 273.524 972.437C274.474 973.434 275.689 974.139 277.026 974.472C278.363 974.806 279.768 974.752 281.076 974.319C282.384 973.885 283.541 973.089 284.413 972.024C285.285 970.959 285.835 969.668 285.999 968.303C286.163 966.937 285.935 965.553 285.341 964.312C284.746 963.072 283.81 962.025 282.642 961.295C281.474 960.565 280.122 960.182 278.744 960.19L278.729 960.205ZM278.729 969.006C278.258 968.99 277.811 968.797 277.476 968.467C277.141 968.137 276.943 967.693 276.921 967.223C276.953 966.764 277.156 966.334 277.491 966.018C277.826 965.702 278.268 965.523 278.729 965.518C278.966 965.505 279.204 965.54 279.427 965.622C279.651 965.704 279.855 965.83 280.027 965.994C280.2 966.157 280.338 966.353 280.432 966.571C280.526 966.789 280.574 967.024 280.574 967.262C280.574 967.499 280.526 967.734 280.432 967.952C280.338 968.17 280.2 968.367 280.027 968.53C279.855 968.693 279.651 968.82 279.427 968.902C279.204 968.983 278.966 969.019 278.729 969.006Z" fill="#292929"/>
<path d="M298.598 1067.2C297.049 1067.22 295.544 1067.72 294.295 1068.64C293.046 1069.55 292.114 1070.83 291.632 1072.3H291.523V1075.9C291.981 1077.59 293.033 1079.06 294.487 1080.05C295.942 1081.03 297.702 1081.46 299.448 1081.26C301.194 1081.06 302.81 1080.24 304.001 1078.95C305.193 1077.66 305.881 1075.99 305.94 1074.24C305.904 1070.42 302.64 1067.2 298.598 1067.2ZM298.598 1076.06C298.12 1076.03 297.668 1075.83 297.331 1075.5C296.993 1075.16 296.795 1074.7 296.775 1074.23C296.809 1073.77 297.016 1073.34 297.355 1073.03C297.693 1072.72 298.137 1072.55 298.598 1072.55C298.829 1072.54 299.061 1072.57 299.279 1072.65C299.497 1072.73 299.697 1072.85 299.867 1073C300.038 1073.16 300.176 1073.35 300.272 1073.56C300.369 1073.77 300.423 1074 300.431 1074.23C300.436 1074.47 300.392 1074.71 300.302 1074.94C300.211 1075.16 300.077 1075.37 299.906 1075.54C299.735 1075.71 299.531 1075.85 299.306 1075.94C299.082 1076.03 298.841 1076.08 298.598 1076.07V1076.06Z" fill="#292929"/>
<path d="M324.805 1075.75C323.258 1075.76 321.751 1076.25 320.499 1077.15C319.247 1078.06 318.312 1079.34 317.829 1080.8H317.715V1084.4C318.18 1086.09 319.234 1087.55 320.686 1088.53C322.139 1089.51 323.895 1089.94 325.637 1089.74C327.378 1089.54 328.99 1088.72 330.181 1087.44C331.373 1086.16 332.064 1084.49 332.132 1082.74C332.111 1078.9 328.831 1075.75 324.805 1075.75ZM324.805 1084.56C324.327 1084.55 323.873 1084.35 323.533 1084.01C323.193 1083.68 322.993 1083.23 322.972 1082.75C323.006 1082.29 323.214 1081.86 323.553 1081.54C323.893 1081.22 324.34 1081.05 324.805 1081.05C325.274 1081.03 325.73 1081.2 326.073 1081.52C326.415 1081.84 326.617 1082.28 326.633 1082.75C326.636 1082.99 326.59 1083.23 326.499 1083.45C326.408 1083.67 326.273 1083.87 326.103 1084.04C325.932 1084.21 325.73 1084.34 325.507 1084.43C325.284 1084.52 325.045 1084.57 324.805 1084.56Z" fill="#292929"/>
<path d="M152.785 987.805C151.234 987.812 149.726 988.306 148.472 989.216C147.218 990.126 146.283 991.406 145.798 992.876H145.685V996.472C146.149 998.159 147.203 999.624 148.656 1000.6C150.109 1001.58 151.864 1002.01 153.606 1001.81C155.347 1001.61 156.959 1000.79 158.151 999.51C159.342 998.227 160.034 996.561 160.101 994.813C160.075 990.975 156.811 987.805 152.785 987.805ZM152.785 996.632C152.304 996.613 151.847 996.414 151.506 996.076C151.165 995.737 150.963 995.283 150.942 994.803C150.983 994.343 151.195 993.916 151.536 993.605C151.877 993.294 152.323 993.122 152.785 993.122C153.249 993.107 153.701 993.275 154.042 993.589C154.383 993.904 154.586 994.34 154.607 994.803C154.61 995.043 154.565 995.281 154.475 995.503C154.384 995.726 154.25 995.928 154.08 996.098C153.911 996.269 153.709 996.403 153.486 996.495C153.264 996.587 153.025 996.633 152.785 996.632Z" fill="#292929"/>
<path d="M515.897 983.145C514.351 983.153 512.846 983.644 511.594 984.55C510.342 985.456 509.407 986.731 508.92 988.196H508.812V991.828C509.277 993.516 510.333 994.982 511.788 995.96C513.243 996.939 515 997.365 516.743 997.162C518.485 996.959 520.097 996.14 521.287 994.853C522.477 993.567 523.166 991.898 523.229 990.148C523.203 986.295 519.939 983.145 515.897 983.145ZM515.897 991.951C515.419 991.938 514.965 991.744 514.625 991.409C514.285 991.075 514.084 990.624 514.064 990.148C514.1 989.686 514.308 989.254 514.647 988.937C514.986 988.621 515.432 988.442 515.897 988.437C516.364 988.437 516.812 988.622 517.142 988.952C517.472 989.281 517.658 989.728 517.658 990.194C517.658 990.66 517.472 991.107 517.142 991.437C516.812 991.766 516.364 991.951 515.897 991.951Z" fill="#292929"/>
<path d="M684.535 1104.55C686.086 1104.54 687.595 1104.05 688.851 1103.14C690.107 1102.23 691.046 1100.95 691.537 1099.48H826.893L896.854 981.824H978.205V978.269H896.854L826.893 1095.89H691.655C691.209 1094.34 690.277 1092.97 688.995 1091.99C687.714 1091.01 686.15 1090.46 684.535 1090.43C680.446 1090.43 677.095 1093.62 677.095 1097.47C677.095 1101.43 680.446 1104.55 684.535 1104.55ZM684.535 1095.75C684.991 1095.78 685.423 1095.97 685.754 1096.28C686.085 1096.6 686.293 1097.02 686.342 1097.48C686.327 1097.95 686.132 1098.41 685.798 1098.75C685.463 1099.09 685.012 1099.29 684.535 1099.31C684.288 1099.32 684.042 1099.28 683.811 1099.19C683.581 1099.11 683.37 1098.97 683.193 1098.8C683.016 1098.63 682.877 1098.42 682.782 1098.19C682.688 1097.97 682.641 1097.72 682.645 1097.48C682.673 1097 682.886 1096.55 683.239 1096.23C683.592 1095.91 684.056 1095.74 684.535 1095.75Z" fill="#292929"/>
<path d="M809.655 830.732C808.102 830.747 806.593 831.246 805.339 832.159C804.084 833.072 803.147 834.353 802.658 835.824H800.31V839.384H802.56C802.996 841.099 804.041 842.597 805.5 843.601C806.96 844.605 808.734 845.047 810.495 844.844C812.256 844.641 813.884 843.808 815.075 842.499C816.267 841.189 816.943 839.493 816.976 837.725C816.946 833.948 813.676 830.732 809.655 830.732ZM809.655 839.559C809.169 839.551 808.706 839.355 808.362 839.013C808.018 838.671 807.821 838.209 807.812 837.725C807.851 837.267 808.063 836.841 808.405 836.534C808.748 836.227 809.195 836.061 809.655 836.07C809.884 836.059 810.114 836.092 810.33 836.169C810.546 836.246 810.745 836.364 810.915 836.518C811.086 836.672 811.224 836.857 811.322 837.064C811.42 837.272 811.477 837.496 811.488 837.725C811.494 837.967 811.451 838.208 811.361 838.433C811.272 838.658 811.137 838.862 810.965 839.034C810.794 839.205 810.589 839.34 810.364 839.431C810.139 839.521 809.898 839.565 809.655 839.559Z" fill="#292929"/>
<path d="M648.215 770.358L691.084 839.163H808.301V835.603H691.084L648.215 766.725H585.148V770.358H648.215Z" fill="#292929"/>
<path d="M571.292 769.089C571.344 770.847 572.028 772.527 573.219 773.823C574.411 775.119 576.03 775.943 577.781 776.144C579.532 776.346 581.297 775.911 582.753 774.92C584.209 773.929 585.258 772.448 585.709 770.748H587.959V767.152H585.591C585.107 765.682 584.174 764.399 582.922 763.485C581.671 762.571 580.165 762.071 578.614 762.055C576.71 762.025 574.871 762.747 573.5 764.065C572.128 765.383 571.334 767.189 571.292 769.089ZM576.745 769.089C576.765 768.619 576.97 768.177 577.315 767.858C577.66 767.538 578.118 767.368 578.588 767.383C579.052 767.384 579.499 767.561 579.838 767.877C580.177 768.194 580.384 768.627 580.416 769.089C580.397 769.565 580.198 770.016 579.858 770.351C579.519 770.687 579.066 770.882 578.588 770.897C578.347 770.903 578.108 770.86 577.884 770.771C577.659 770.683 577.455 770.55 577.284 770.382C577.112 770.213 576.975 770.012 576.883 769.79C576.79 769.567 576.744 769.329 576.745 769.089Z" fill="#292929"/>
<path d="M725.699 801.765C729.19 803.445 733.422 801.883 735.24 798.204C735.926 796.813 736.143 795.236 735.858 793.711C735.573 792.186 734.802 790.794 733.659 789.742L780.286 691.235L768.578 651.859L788.092 613.022H784.024L765.345 650.282L777.079 689.684L730.513 788.093C728.786 787.758 726.997 788.054 725.47 788.925C723.943 789.797 722.781 791.187 722.195 792.841C721.61 794.496 721.639 796.306 722.278 797.941C722.918 799.576 724.124 800.928 725.678 801.75L725.699 801.765ZM727.311 794.351C727.516 793.936 727.877 793.618 728.316 793.467C728.754 793.316 729.235 793.344 729.653 793.544C729.87 793.648 730.064 793.792 730.225 793.971C730.385 794.149 730.509 794.357 730.589 794.583C730.669 794.809 730.704 795.048 730.691 795.287C730.679 795.527 730.619 795.761 730.516 795.977C730.412 796.193 730.267 796.387 730.089 796.548C729.91 796.708 729.702 796.831 729.475 796.911C729.249 796.991 729.009 797.026 728.769 797.013C728.529 797.001 728.294 796.941 728.078 796.838C727.858 796.731 727.662 796.581 727.502 796.396C727.343 796.21 727.224 795.994 727.152 795.761C727.08 795.528 727.057 795.282 727.084 795.04C727.111 794.797 727.188 794.563 727.311 794.351Z" fill="#292929"/>
<path d="M717.744 777.72C721.286 779.406 725.575 777.72 727.362 774.088C728.023 772.686 728.23 771.112 727.953 769.587C727.676 768.062 726.93 766.661 725.817 765.58L759.681 693.332L747.952 654.028L768.516 613.038H764.51L744.718 652.466L756.468 691.77L722.641 763.895C721.048 763.639 719.415 763.89 717.974 764.613C716.533 765.336 715.357 766.494 714.614 767.923C712.832 771.601 714.248 776.015 717.744 777.72ZM719.428 770.235C719.652 769.839 720.012 769.537 720.441 769.385C720.871 769.233 721.341 769.241 721.765 769.407C722.188 769.62 722.512 769.987 722.67 770.432C722.828 770.877 722.809 771.366 722.615 771.796C722.524 772.024 722.387 772.23 722.212 772.402C722.037 772.574 721.828 772.707 721.598 772.794C721.369 772.881 721.124 772.92 720.879 772.907C720.633 772.894 720.394 772.831 720.174 772.721C719.753 772.484 719.44 772.093 719.301 771.63C719.161 771.168 719.207 770.669 719.428 770.24V770.235Z" fill="#292929"/>
<path d="M395.771 1002.27L384.351 977.416L394.648 937.573L354.828 862.766H350.75L391.435 939.273L381.2 979.091L392.681 1004.08C391.587 1005.17 390.874 1006.57 390.65 1008.1C390.425 1009.62 390.701 1011.17 391.435 1012.52C393.382 1016.16 397.681 1017.57 401.115 1015.76C402.635 1014.88 403.787 1013.49 404.363 1011.83C404.938 1010.17 404.899 1008.36 404.252 1006.73C403.606 1005.1 402.394 1003.75 400.838 1002.94C399.282 1002.12 397.484 1001.89 395.771 1002.28V1002.27ZM398.546 1010.92C398.327 1011.03 398.088 1011.09 397.844 1011.11C397.6 1011.12 397.355 1011.09 397.125 1011.01C396.894 1010.92 396.683 1010.8 396.503 1010.63C396.324 1010.46 396.18 1010.26 396.08 1010.04C395.874 1009.63 395.839 1009.15 395.981 1008.71C396.124 1008.27 396.433 1007.9 396.842 1007.69C397.252 1007.47 397.73 1007.42 398.174 1007.55C398.618 1007.69 398.994 1007.98 399.22 1008.39C399.351 1008.6 399.438 1008.83 399.474 1009.07C399.511 1009.31 399.498 1009.56 399.434 1009.8C399.371 1010.04 399.26 1010.26 399.107 1010.45C398.954 1010.64 398.763 1010.8 398.546 1010.92Z" fill="#292929"/>
<path d="M385.097 862.766H381.03L419.218 934.603L408.957 974.324L429.423 1013.8C428.354 1014.93 427.663 1016.36 427.447 1017.89C427.23 1019.43 427.498 1021 428.213 1022.38C430.134 1025.97 434.479 1027.45 437.95 1025.62C441.42 1023.8 442.62 1019.36 440.709 1015.78C439.933 1014.36 438.72 1013.23 437.251 1012.55C435.781 1011.88 434.133 1011.69 432.549 1012.02L412.123 972.638L422.385 932.892L385.097 862.766ZM433.625 1017.48C434.044 1017.29 434.518 1017.27 434.956 1017.41C435.394 1017.55 435.765 1017.84 435.998 1018.24C436.139 1018.44 436.236 1018.67 436.281 1018.92C436.326 1019.17 436.32 1019.42 436.261 1019.66C436.203 1019.9 436.095 1020.13 435.943 1020.33C435.791 1020.52 435.6 1020.69 435.38 1020.81C435.161 1020.93 434.919 1021 434.671 1021.02C434.422 1021.04 434.171 1021.01 433.935 1020.93C433.7 1020.84 433.484 1020.71 433.302 1020.54C433.119 1020.37 432.975 1020.17 432.878 1019.94C432.665 1019.51 432.624 1019.02 432.763 1018.56C432.901 1018.1 433.21 1017.72 433.625 1017.48Z" fill="#292929"/>
<path d="M641.589 908.878L630.179 884.006L640.477 844.214L600.661 769.381H596.594L637.269 845.873L627.043 885.686L638.515 910.656C637.418 911.748 636.705 913.165 636.483 914.695C636.261 916.226 636.542 917.786 637.284 919.144C639.2 922.776 643.499 924.168 646.949 922.339C647.777 921.878 648.506 921.259 649.094 920.517C649.682 919.774 650.117 918.923 650.375 918.012C650.633 917.102 650.708 916.149 650.596 915.21C650.484 914.27 650.188 913.362 649.724 912.536C648.988 911.093 647.781 909.943 646.302 909.278C644.822 908.613 643.159 908.472 641.589 908.878ZM644.379 917.535C643.935 917.744 643.425 917.768 642.963 917.604C642.5 917.439 642.121 917.099 641.908 916.657C641.714 916.243 641.685 915.772 641.825 915.337C641.966 914.903 642.266 914.537 642.665 914.314C642.865 914.197 643.087 914.122 643.317 914.094C643.547 914.065 643.78 914.083 644.003 914.147C644.226 914.211 644.434 914.319 644.613 914.465C644.793 914.611 644.941 914.792 645.049 914.997C645.18 915.206 645.267 915.439 645.304 915.682C645.341 915.925 645.328 916.173 645.265 916.411C645.202 916.649 645.091 916.872 644.939 917.065C644.787 917.258 644.596 917.418 644.379 917.535Z" fill="#292929"/>
<path d="M364.301 930.118L324.265 863.527H320.074L361.14 931.824C360.029 932.995 359.321 934.49 359.121 936.091C358.921 937.692 359.239 939.315 360.028 940.723C362.088 944.211 366.526 945.527 369.872 943.574C373.219 941.622 374.28 937.142 372.241 933.602C371.439 932.275 370.246 931.228 368.824 930.604C367.403 929.981 365.823 929.811 364.301 930.118ZM367.066 938.77C366.857 938.882 366.628 938.952 366.391 938.975C366.155 938.997 365.917 938.973 365.69 938.903C365.463 938.832 365.253 938.718 365.071 938.565C364.889 938.413 364.739 938.226 364.631 938.015C364.42 937.61 364.363 937.142 364.471 936.698C364.579 936.254 364.844 935.864 365.218 935.6C365.638 935.374 366.129 935.317 366.591 935.441C367.052 935.564 367.448 935.858 367.7 936.263C367.83 936.466 367.917 936.694 367.956 936.932C367.994 937.171 367.983 937.414 367.924 937.648C367.865 937.882 367.758 938.101 367.611 938.293C367.463 938.484 367.278 938.643 367.066 938.76V938.77Z" fill="#292929"/>
<path d="M674.747 868.233L621.956 768.991H617.781L671.585 869.959C670.472 871.119 669.76 872.604 669.553 874.197C669.347 875.79 669.656 877.407 670.437 878.812C672.497 882.372 676.961 883.667 680.307 881.715C683.654 879.762 684.73 875.251 682.671 871.716C681.867 870.396 680.675 869.353 679.258 868.73C677.841 868.107 676.266 867.934 674.747 868.233ZM677.501 876.885C677.294 876.998 677.066 877.068 676.831 877.092C676.595 877.116 676.358 877.094 676.131 877.026C675.905 876.958 675.694 876.846 675.512 876.697C675.329 876.548 675.177 876.364 675.066 876.155C674.83 875.751 674.764 875.27 674.883 874.818C675.003 874.366 675.297 873.979 675.702 873.743C676.107 873.508 676.589 873.442 677.042 873.561C677.496 873.68 677.883 873.974 678.119 874.378C678.253 874.58 678.344 874.808 678.385 875.047C678.427 875.286 678.418 875.531 678.36 875.766C678.302 876.002 678.196 876.223 678.048 876.415C677.9 876.608 677.714 876.768 677.501 876.885Z" fill="#292929"/>
<path d="M639.05 719.596C637.498 719.609 635.989 720.107 634.736 721.021C633.483 721.934 632.548 723.217 632.063 724.688H631.966V728.284H631.929C632.394 729.971 633.448 731.436 634.901 732.415C636.353 733.394 638.109 733.822 639.851 733.622C641.592 733.421 643.204 732.606 644.396 731.322C645.587 730.039 646.279 728.373 646.346 726.625C646.346 722.787 643.071 719.596 639.05 719.596ZM639.05 728.444C638.568 728.427 638.111 728.229 637.769 727.89C637.427 727.551 637.226 727.095 637.207 726.614C637.242 726.153 637.453 725.722 637.795 725.41C638.138 725.098 638.586 724.928 639.05 724.934C639.28 724.925 639.51 724.961 639.726 725.04C639.942 725.119 640.141 725.241 640.309 725.397C640.478 725.553 640.615 725.741 640.711 725.95C640.806 726.159 640.86 726.385 640.868 726.614C640.872 726.854 640.828 727.093 640.738 727.316C640.648 727.538 640.515 727.741 640.346 727.912C640.176 728.082 639.974 728.217 639.752 728.308C639.529 728.4 639.291 728.446 639.05 728.444Z" fill="#292929"/>
<path d="M710.963 620.401C709.411 620.411 707.901 620.908 706.649 621.823C705.397 622.738 704.465 624.024 703.987 625.497H703.878V629.058C704.321 630.764 705.366 632.252 706.821 633.25C708.276 634.248 710.044 634.688 711.798 634.489C713.552 634.29 715.175 633.466 716.369 632.168C717.563 630.87 718.247 629.185 718.295 627.424C718.259 623.596 714.984 620.401 710.963 620.401ZM710.963 629.253C710.484 629.235 710.029 629.037 709.691 628.697C709.352 628.358 709.156 627.903 709.141 627.424C709.167 626.963 709.372 626.53 709.712 626.217C710.052 625.903 710.5 625.734 710.963 625.744C711.195 625.731 711.427 625.764 711.645 625.842C711.864 625.92 712.064 626.041 712.235 626.198C712.406 626.354 712.544 626.543 712.64 626.754C712.737 626.965 712.79 627.193 712.796 627.424C712.8 627.665 712.754 627.905 712.664 628.128C712.573 628.352 712.438 628.555 712.267 628.725C712.096 628.896 711.893 629.03 711.669 629.121C711.445 629.212 711.205 629.257 710.963 629.253Z" fill="#292929"/>
<path d="M817.924 850.261C816.382 850.266 814.88 850.752 813.63 851.653C812.379 852.553 811.443 853.822 810.952 855.28H810.839V858.918H810.798C811.257 860.613 812.311 862.086 813.768 863.071C815.224 864.055 816.987 864.484 818.734 864.28C820.482 864.075 822.098 863.251 823.287 861.958C824.476 860.664 825.16 858.987 825.214 857.233C825.214 853.405 821.935 850.261 817.924 850.261ZM817.924 859.062C817.443 859.046 816.986 858.848 816.647 858.509C816.307 858.169 816.11 857.712 816.096 857.233C816.135 856.775 816.344 856.349 816.682 856.038C817.021 855.727 817.464 855.554 817.924 855.553C818.388 855.537 818.84 855.705 819.182 856.019C819.524 856.333 819.729 856.769 819.752 857.233C819.756 857.474 819.711 857.713 819.621 857.936C819.531 858.16 819.396 858.363 819.226 858.533C819.055 858.704 818.852 858.839 818.628 858.929C818.405 859.02 818.165 859.065 817.924 859.062Z" fill="#292929"/>
<path d="M672.085 998.995L699.404 1054.69L744.245 1059.69L752.575 1076.73H756.509L747.396 1058.2L702.632 1053.13L675.344 997.531C676.665 996.377 677.527 994.789 677.774 993.056C678.021 991.322 677.637 989.557 676.69 988.082C675.744 986.607 674.3 985.519 672.618 985.017C670.937 984.514 669.131 984.63 667.528 985.344C664.073 987.024 662.652 991.365 664.439 994.977C665.129 996.363 666.239 997.498 667.611 998.219C668.984 998.94 670.549 999.212 672.085 998.995ZM669.958 990.261C670.174 990.15 670.41 990.085 670.651 990.068C670.893 990.051 671.136 990.083 671.365 990.163C671.593 990.243 671.803 990.368 671.982 990.532C672.161 990.695 672.304 990.893 672.404 991.114C672.593 991.546 672.612 992.033 672.459 992.479C672.306 992.925 671.99 993.298 671.575 993.523C671.144 993.7 670.662 993.705 670.227 993.538C669.792 993.371 669.438 993.044 669.237 992.624C669.128 992.423 669.06 992.202 669.037 991.974C669.014 991.746 669.037 991.516 669.104 991.297C669.171 991.078 669.281 990.874 669.428 990.698C669.575 990.522 669.755 990.377 669.958 990.271V990.261Z" fill="#292929"/>
<path d="M680.307 925.802L697.206 960.226L691.722 976.076L713.713 1020.89L745.305 1031.77L767.332 1076.7H770.606L747.952 1030.46L716.411 1019.54L694.436 974.76L699.806 959.008L682.913 924.508C683.962 923.683 684.698 922.525 684.995 921.225C685.293 919.926 685.136 918.564 684.55 917.366C683.834 915.988 682.607 914.944 681.13 914.457C679.654 913.969 678.045 914.076 676.647 914.756C675.254 915.436 674.186 916.638 673.676 918.099C673.166 919.561 673.255 921.164 673.923 922.56C674.501 923.71 675.433 924.644 676.581 925.228C677.73 925.811 679.036 926.012 680.307 925.802ZM678.572 918.707C678.911 918.551 679.298 918.531 679.651 918.653C680.004 918.774 680.297 919.028 680.467 919.359C680.642 919.701 680.676 920.097 680.561 920.463C680.447 920.829 680.193 921.136 679.854 921.317C679.492 921.475 679.084 921.498 678.706 921.381C678.327 921.264 678.004 921.015 677.795 920.68C677.67 920.315 677.68 919.917 677.822 919.558C677.965 919.2 678.231 918.903 678.572 918.722V918.707Z" fill="#292929"/>
<path d="M744.832 957.256L769.592 1007.68L761.493 1031.24L783.803 1076.74H786.964L764.062 1029.99L772.331 1006.4L747.653 956.053C748.76 955.142 749.495 953.858 749.72 952.444C749.945 951.03 749.645 949.582 748.877 948.373C748.108 947.164 746.923 946.276 745.545 945.877C744.167 945.478 742.691 945.594 741.392 946.204C740.691 946.535 740.063 947.002 739.545 947.577C739.026 948.152 738.627 948.825 738.372 949.556C738.116 950.286 738.009 951.061 738.057 951.833C738.104 952.605 738.305 953.361 738.648 954.055C739.209 955.171 740.11 956.081 741.22 956.656C742.33 957.23 743.595 957.44 744.832 957.256ZM743.287 950.037C743.64 949.914 744.025 949.923 744.371 950.062C744.718 950.201 745.002 950.46 745.172 950.792C745.338 951.125 745.373 951.507 745.271 951.865C745.169 952.222 744.937 952.529 744.621 952.724C744.443 952.82 744.248 952.879 744.047 952.898C743.846 952.917 743.643 952.896 743.45 952.835C743.258 952.774 743.079 952.674 742.926 952.543C742.773 952.412 742.648 952.251 742.558 952.07C742.468 951.89 742.416 951.693 742.404 951.492C742.393 951.29 742.422 951.089 742.49 950.899C742.558 950.709 742.663 950.535 742.8 950.387C742.937 950.239 743.103 950.12 743.287 950.037Z" fill="#292929"/>
</g>
<defs>
<clipPath id="clip0_20_84">
<rect width="2235" height="1158" fill="white"/>
</clipPath>
</defs>
</svg>
