<svg width="25" height="25" viewBox="0 0 25 25" fill="none" xmlns="http://www.w3.org/2000/svg">
<path d="M11.0241 0.0300903C4.94547 0.0300903 0 4.96203 0 11.0241C0 17.0862 4.94552 22.0181 11.0241 22.0181C17.1027 22.0181 22.0482 17.0862 22.0482 11.0241C22.0482 4.96203 17.1027 0.0300903 11.0241 0.0300903ZM11.0241 20.2108C5.94186 20.2108 1.80723 16.0894 1.80723 11.0241C1.80723 5.95837 5.94186 1.83727 11.0241 1.83727C16.1063 1.83727 20.241 5.95837 20.241 11.0241C20.241 16.0894 16.1064 20.2108 11.0241 20.2108Z" fill="#DEB607"/>
<path d="M24.7338 23.4256L18.8 17.522C18.4461 17.1702 17.8741 17.1717 17.522 17.5253C17.1702 17.8792 17.1717 18.4512 17.5253 18.8034L23.4591 24.707C23.6356 24.8823 23.8657 24.9699 24.0964 24.9699C24.3287 24.9699 24.5606 24.881 24.7371 24.7037C25.0889 24.3497 25.0874 23.7777 24.7338 23.4256Z" fill="#DEB607"/>
</svg>
