<svg width="36" height="36" viewBox="0 0 36 36" fill="none" xmlns="http://www.w3.org/2000/svg">
<path d="M6.918 28.7658L8.6466 26.343C6.621 27.0582 3.8466 28.1922 2.8128 29.223C2.0286 30.003 1.4214 31.929 1.2408 34.1292C1.23296 34.2128 1.24263 34.2971 1.2692 34.3767C1.29578 34.4563 1.33867 34.5295 1.39513 34.5916C1.4516 34.6538 1.52039 34.7034 1.59713 34.7374C1.67387 34.7715 1.75686 34.7891 1.8408 34.7892L9.0276 34.7922L6.8016 29.9688C6.71284 29.7759 6.67684 29.5629 6.69729 29.3516C6.71774 29.1402 6.7939 28.9381 6.918 28.7658Z" fill="black"/>
<path d="M20.2662 26.8853L19.7262 26.1323C18.7594 26.907 17.5896 27.3862 16.3572 27.5123L18 29.1515L20.2662 26.8853Z" fill="black"/>
<path d="M19.1034 25.0884C18.8057 24.3183 18.6094 23.5128 18.5196 22.692L17.8728 23.2578C17.327 23.7364 16.6259 24.0001 15.9 24H14.1C13.3737 24.0001 12.6723 23.7359 12.1266 23.2566L11.4804 22.692C11.3905 23.5129 11.1942 24.3187 10.8966 25.089C11.331 25.515 12.531 26.4 15 26.4C17.469 26.4 18.6648 25.518 19.1034 25.0884Z" fill="black"/>
<path d="M9.73438 26.8859L12 29.1515L13.6404 27.5111C12.4081 27.3852 11.2384 26.906 10.272 26.1311L9.73438 26.8859Z" fill="black"/>
<path d="M25.8 16.8C27.1054 16.8 28.3814 16.4129 29.4668 15.6877C30.5521 14.9625 31.3981 13.9317 31.8976 12.7257C32.3972 11.5197 32.5279 10.1927 32.2732 8.91238C32.0185 7.63211 31.3899 6.4561 30.4669 5.53307C29.5439 4.61005 28.3679 3.98146 27.0876 3.7268C25.8073 3.47213 24.4803 3.60284 23.2743 4.10237C22.0683 4.60191 21.0375 5.44785 20.3123 6.53321C19.5871 7.61858 19.2 8.89462 19.2 10.2C19.2021 11.9498 19.8981 13.6273 21.1354 14.8646C22.3727 16.1019 24.0502 16.7979 25.8 16.8ZM25.9758 6.17578C26.089 6.06648 26.2405 6.00601 26.3979 6.00737C26.5552 6.00874 26.7057 6.07184 26.8169 6.18309C26.9281 6.29433 26.9912 6.44482 26.9926 6.60214C26.994 6.75946 26.9335 6.91102 26.8242 7.02418L23.8242 10.0242C23.7111 10.1335 23.5595 10.194 23.4022 10.1926C23.2449 10.1912 23.0944 10.1281 22.9831 10.0169C22.8719 9.90562 22.8088 9.75514 22.8074 9.59782C22.806 9.4405 22.8665 9.28894 22.9758 9.17578L25.9758 6.17578ZM22.3758 6.17578L22.9758 5.57578C23.089 5.46648 23.2405 5.40601 23.3979 5.40737C23.5552 5.40874 23.7057 5.47184 23.8169 5.58309C23.9281 5.69433 23.9912 5.84482 23.9926 6.00214C23.994 6.15946 23.9335 6.31102 23.8242 6.42418L23.2242 7.02418C23.1111 7.13347 22.9595 7.19395 22.8022 7.19258C22.6449 7.19122 22.4944 7.12811 22.3831 7.01687C22.2719 6.90562 22.2088 6.75514 22.2074 6.59782C22.206 6.4405 22.2665 6.28894 22.3758 6.17578Z" fill="black"/>
<path d="M25.8 19.2C27.58 19.2 29.3201 18.6721 30.8001 17.6832C32.2802 16.6942 33.4337 15.2886 34.1149 13.6441C34.7961 11.9996 34.9743 10.19 34.6271 8.44414C34.2798 6.69831 33.4226 5.09467 32.1639 3.83599C30.9053 2.57732 29.3016 1.72015 27.5558 1.37289C25.81 1.02562 24.0004 1.20385 22.3558 1.88504C20.7113 2.56623 19.3057 3.71978 18.3168 5.19982C17.3278 6.67987 16.8 8.41992 16.8 10.2C16.8027 12.5861 17.7518 14.8737 19.439 16.5609C21.1263 18.2482 23.4139 19.1973 25.8 19.2ZM25.8 2.39996C27.3427 2.39996 28.8507 2.85742 30.1334 3.71449C31.4161 4.57157 32.4159 5.78976 33.0062 7.21502C33.5966 8.64029 33.7511 10.2086 33.4501 11.7217C33.1491 13.2347 32.4063 14.6245 31.3154 15.7154C30.2246 16.8062 28.8347 17.5491 27.3217 17.8501C25.8086 18.151 24.2403 17.9966 22.8151 17.4062C21.3898 16.8159 20.1716 15.8161 19.3145 14.5334C18.4574 13.2507 18 11.7426 18 10.2C18.0024 8.132 18.8249 6.14942 20.2872 4.68715C21.7495 3.22489 23.732 2.40234 25.8 2.39996Z" fill="black"/>
<path d="M8.40001 16.2C8.55914 16.2 8.71175 16.2632 8.82427 16.3757C8.93679 16.4883 9.00001 16.6409 9.00001 16.8V18.108C8.99987 18.3656 9.05483 18.6202 9.16122 18.8548C9.2676 19.0894 9.42294 19.2986 9.61681 19.4682L12.9168 22.3542C13.2441 22.6414 13.6646 22.7999 14.1 22.8H15.9C16.3352 22.7999 16.7554 22.6417 17.0826 22.3548L20.3826 19.4682C20.5216 19.3452 20.6413 19.202 20.7378 19.0434C19.4417 18.305 18.3239 17.2907 17.4634 16.0723C16.6029 14.8538 16.0209 13.4611 15.7585 11.9927C15.4961 10.5244 15.5599 9.01624 15.9451 7.57522C16.3304 6.13419 17.0278 4.79551 17.988 3.654C17.052 3.21881 16.0322 2.99355 15 2.994C13.27 2.97672 11.5967 3.60995 10.3116 4.7682C9.71459 5.29924 9.23589 5.94987 8.90656 6.67787C8.57724 7.40588 8.40466 8.19498 8.40001 8.994V12.084C8.39997 12.2174 8.35547 12.347 8.27354 12.4523C8.19161 12.5576 8.07692 12.6326 7.94761 12.6654C7.52409 12.7747 7.15503 13.0349 6.9097 13.397C6.66438 13.7591 6.55965 14.1983 6.61518 14.6322C6.67071 15.066 6.88268 15.4647 7.21131 15.7534C7.53993 16.0421 7.96261 16.2009 8.40001 16.2ZM12.6 14.4C12.6 14.5591 12.5368 14.7117 12.4243 14.8243C12.3118 14.9368 12.1591 15 12 15C11.8409 15 11.6883 14.9368 11.5757 14.8243C11.4632 14.7117 11.4 14.5591 11.4 14.4C11.2409 14.4 11.0883 14.3368 10.9757 14.2243C10.8632 14.1117 10.8 13.9591 10.8 13.8C10.8 13.6409 10.8632 13.4883 10.9757 13.3757C11.0883 13.2632 11.2409 13.2 11.4 13.2H12.6C12.7591 13.2 12.9118 13.2632 13.0243 13.3757C13.1368 13.4883 13.2 13.6409 13.2 13.8C13.2 13.9591 13.1368 14.1117 13.0243 14.2243C12.9118 14.3368 12.7591 14.4 12.6 14.4ZM15.6 21.6H14.4C14.2409 21.6 14.0883 21.5368 13.9757 21.4243C13.8632 21.3117 13.8 21.1591 13.8 21C13.8 20.8409 13.8632 20.6882 13.9757 20.5757C14.0883 20.4632 14.2409 20.4 14.4 20.4H15.6C15.7591 20.4 15.9118 20.4632 16.0243 20.5757C16.1368 20.6882 16.2 20.8409 16.2 21C16.2 21.1591 16.1368 21.3117 16.0243 21.4243C15.9118 21.5368 15.7591 21.6 15.6 21.6ZM16.8 19.2C16.8 19.3591 16.7368 19.5117 16.6243 19.6243C16.5118 19.7368 16.3591 19.8 16.2 19.8H13.8C13.6409 19.8 13.4883 19.7368 13.3757 19.6243C13.2632 19.5117 13.2 19.3591 13.2 19.2C13.2 19.0409 13.2632 18.8883 13.3757 18.7757C13.4883 18.6632 13.6409 18.6 13.8 18.6H16.2C16.3591 18.6 16.5118 18.6632 16.6243 18.7757C16.7368 18.8883 16.8 19.0409 16.8 19.2ZM14.4 16.2H15.6C15.7591 16.2 15.9118 16.2632 16.0243 16.3757C16.1368 16.4883 16.2 16.6409 16.2 16.8C16.2 16.9591 16.1368 17.1117 16.0243 17.2243C15.9118 17.3368 15.7591 17.4 15.6 17.4H14.4C14.2409 17.4 14.0883 17.3368 13.9757 17.2243C13.8632 17.1117 13.8 16.9591 13.8 16.8C13.8 16.6409 13.8632 16.4883 13.9757 16.3757C14.0883 16.2632 14.2409 16.2 14.4 16.2ZM10.8 11.4H13.2C13.3591 11.4 13.5118 11.4632 13.6243 11.5757C13.7368 11.6883 13.8 11.8409 13.8 12C13.8 12.1591 13.7368 12.3117 13.6243 12.4243C13.5118 12.5368 13.3591 12.6 13.2 12.6H10.8C10.6409 12.6 10.4883 12.5368 10.3757 12.4243C10.2632 12.3117 10.2 12.1591 10.2 12C10.2 11.8409 10.2632 11.6883 10.3757 11.5757C10.4883 11.4632 10.6409 11.4 10.8 11.4Z" fill="black"/>
<path d="M11.1516 30L9.02759 27.876L7.8924 29.4666L10.3476 34.7934H12.8142L13.1832 30.7554L12.7386 30.0888C12.5091 30.2708 12.2207 30.3624 11.9282 30.346C11.6357 30.3296 11.3594 30.2065 11.1516 30Z" fill="black"/>
<path d="M30.891 20.4209L30.4014 19.2911C30.0426 19.4728 29.6733 19.6331 29.2956 19.7711L29.7852 20.9009C30.1009 20.6395 30.4844 20.473 30.891 20.4209Z" fill="black"/>
<path d="M21.3534 26.3436L23.085 28.7694C23.2091 28.9411 23.2856 29.1425 23.3067 29.3533C23.3277 29.564 23.2926 29.7766 23.205 29.9694L20.973 34.8H28.161C28.2449 34.7998 28.3278 34.7821 28.4045 34.748C28.4812 34.714 28.55 34.6643 28.6064 34.6023C28.6629 34.5402 28.7058 34.467 28.7324 34.3874C28.759 34.3078 28.7687 34.2236 28.761 34.14C28.581 31.9308 27.9732 30.0066 27.189 29.2236C26.154 28.1922 23.3796 27.06 21.3534 26.3436Z" fill="black"/>
<path d="M14.3478 31.2L14.0196 34.7945L15.9804 34.7951L15.6522 31.2H14.3478Z" fill="black"/>
<path d="M32.358 22.3068C32.2314 22.0148 31.994 21.7851 31.698 21.6681C31.402 21.5511 31.0717 21.5565 30.7797 21.6831C30.4877 21.8097 30.258 22.0471 30.141 22.3431C30.024 22.6391 30.0294 22.9694 30.156 23.2614L32.499 28.68C32.6297 28.9683 32.8673 29.1944 33.1616 29.3107C33.456 29.4271 33.784 29.4244 34.0764 29.3034C34.3684 29.1769 34.5982 28.9396 34.7152 28.6436C34.8322 28.3477 34.8269 28.0174 34.7004 27.7254L32.358 22.3068Z" fill="black"/>
<path d="M20.9736 27.8748L18.8484 30C18.6417 30.2083 18.3651 30.3327 18.0721 30.3492C17.7791 30.3657 17.4903 30.2731 17.2614 30.0894L16.8168 30.756L17.1858 34.7958H19.6512L22.1112 29.466L20.9736 27.8748Z" fill="black"/>
<path d="M13.6122 29.2362L14.121 30H15.879L16.3878 29.2362L15 27.8484L13.6122 29.2362Z" fill="black"/>
</svg>
