<svg width="36" height="36" viewBox="0 0 36 36" fill="none" xmlns="http://www.w3.org/2000/svg">
<g clip-path="url(#clip0_10_135)">
<path d="M28.8953 18.675H7.02977C5.96792 18.675 5.13677 19.5904 5.23427 20.6483L6.51302 34.362C6.60002 35.2958 7.37177 36 8.30852 36H27.6165C28.5533 36 29.325 35.2958 29.412 34.362L30.6908 20.6483C30.7882 19.5911 29.9577 18.675 28.8953 18.675ZM20.7945 29.3205L21.987 30.513C22.3643 30.8915 22.0945 31.5375 21.5625 31.5375C21.4088 31.5375 21.2558 31.479 21.138 31.362L19.944 30.168C19.6215 30.8783 18.9105 31.35 18.108 31.35H17.892C17.0888 31.35 16.3785 30.879 16.056 30.168L14.862 31.362C14.6264 31.5961 14.2485 31.596 14.013 31.362C13.779 31.1273 13.779 30.7478 14.013 30.513L15.2025 29.3235C14.2993 28.1828 14.1498 26.5336 14.9918 25.2158L14.013 24.237C13.779 24.0023 13.779 23.6228 14.013 23.388C14.2478 23.154 14.6273 23.154 14.862 23.388L15.798 24.324C17.1133 23.2779 18.9377 23.3074 20.2095 24.3165L21.138 23.388C21.3728 23.154 21.7523 23.154 21.987 23.388C22.221 23.6228 22.221 24.0023 21.987 24.237L21.0143 25.2098C21.8143 26.4693 21.7391 28.1225 20.7945 29.3205Z" fill="black"/>
<path d="M20.3632 27.1132C20.3632 27.954 19.9102 28.7378 19.1812 29.16C19.041 29.241 18.939 29.3753 18.9 29.5328C18.8085 29.8965 18.483 30.15 18.108 30.15H17.892C17.517 30.15 17.1915 29.8965 17.1 29.5328C17.061 29.3753 16.959 29.241 16.8187 29.16C16.0734 28.7278 15.5869 27.8837 15.6413 26.9692C15.7118 25.7715 16.7062 24.798 17.9062 24.7515C19.3453 24.7172 20.3632 25.8431 20.3632 27.1132Z" fill="black"/>
<path d="M5.46662 35.1706C5.60387 35.5764 5.2846 35.9938 4.85747 35.9617C3.02867 35.8243 1.76132 35.3164 1.00202 34.4206C0.309773 33.6046 0.0765233 32.5043 0.307523 31.1513C0.774923 28.4146 1.76207 25.8072 3.20575 23.461C3.50785 22.9701 4.26137 23.1461 4.31477 23.72C5.41795 35.5796 5.33792 34.7903 5.46662 35.1706Z" fill="black"/>
<path d="M34.998 34.4206C34.2332 35.323 32.9253 35.8318 31.0658 35.9647C30.6354 35.9954 30.3227 35.5735 30.4608 35.1646C30.6192 34.6955 30.5154 35.4535 31.6193 23.6131C31.6727 23.0405 32.4227 22.8641 32.7269 23.3521C34.2071 25.7265 35.2175 28.3722 35.6924 31.1513C35.9235 32.5043 35.6903 33.6045 34.998 34.4206Z" fill="black"/>
<path d="M9.89022 17.4749H7.97742C7.59642 17.4749 7.27729 17.1836 7.24617 16.8038C7.15842 15.7348 7.20274 14.6066 7.32882 13.5457C7.34134 13.4401 7.38139 13.339 7.44679 13.2551C7.97719 12.5744 8.64934 12.0007 9.36004 11.5299C9.55902 11.3981 9.82519 11.5422 9.82519 11.7809V14.6999C9.82519 15.5221 9.94489 16.3251 10.1783 17.0909C10.2364 17.2823 10.0902 17.4749 9.89022 17.4749Z" fill="black"/>
<path d="M28.0342 10.3901C28.1118 10.6624 27.8028 10.8785 27.5714 10.7155C22.4862 7.13085 13.5113 7.1286 8.42907 10.7145C8.1977 10.8778 7.88855 10.6616 7.9661 10.3892C9.53787 4.8702 13.3744 0 18.0001 0C22.626 0 26.4627 4.87073 28.0342 10.3901Z" fill="black"/>
<path d="M28.7545 16.8035C28.7235 17.1834 28.4043 17.475 28.0232 17.475H26.1093C25.9092 17.475 25.7629 17.2823 25.8213 17.0909C26.0552 16.3245 26.175 15.5216 26.175 14.7V11.7734C26.175 11.5345 26.4414 11.3903 26.6404 11.5226C27.3545 11.9972 28.0227 12.5722 28.5534 13.2544C28.6187 13.3382 28.6587 13.4393 28.6713 13.5449C28.7984 14.6142 28.8409 15.7427 28.7545 16.8035Z" fill="black"/>
<path d="M11.3903 10.4626C11.1682 10.5545 11.0251 10.7733 11.0251 11.0137V14.7C11.0251 15.4916 11.155 16.2623 11.4079 16.9902C11.5094 17.2823 11.7888 17.475 12.098 17.475H17.1106C17.2855 17.475 17.4142 17.3234 17.4018 17.149C17.3817 16.8673 17.5612 16.5752 17.8831 16.512C18.2668 16.4338 18.6258 16.745 18.5983 17.1416C18.586 17.3201 18.7175 17.475 18.8965 17.475H23.9017C24.2107 17.475 24.4901 17.2824 24.5917 16.9905C24.8452 16.262 24.9751 15.4913 24.9751 14.7V11.006C24.9751 10.7646 24.8308 10.5457 24.6077 10.4535C20.7667 8.86623 15.508 8.7601 11.3903 10.4626ZM19.1288 14.3265C18.8112 14.5109 18.6001 14.8288 18.6001 15.231C18.6001 15.5625 18.3316 15.831 18.0001 15.831C17.6686 15.831 17.4001 15.5625 17.4001 15.231C17.4001 14.3861 17.8646 13.6724 18.5266 13.2885C18.8656 13.092 19.0666 12.7268 19.0516 12.3353C19.0306 11.79 18.5873 11.3468 18.0413 11.3258C17.4414 11.3024 16.9478 11.7813 16.9478 12.3773C16.9478 12.7088 16.6793 12.9773 16.3478 12.9773C16.0163 12.9773 15.7478 12.7088 15.7478 12.3773C15.7478 11.097 16.8082 10.0784 18.0871 10.1265C19.2563 10.1708 20.2066 11.121 20.2508 12.2903C20.2823 13.1265 19.8526 13.9065 19.1288 14.3265Z" fill="black"/>
</g>
<defs>
<clipPath id="clip0_10_135">
<rect width="36" height="36" fill="white"/>
</clipPath>
</defs>
</svg>
