<svg width="36" height="36" viewBox="0 0 36 36" fill="none" xmlns="http://www.w3.org/2000/svg">
<path d="M23.256 15.552C24.552 16.848 25.416 18.72 25.416 20.736C25.416 22.752 24.624 24.552 23.256 25.92C25.272 25.056 27.216 23.688 29.016 21.888L30.096 20.736L29.016 19.584C27.216 17.712 25.272 16.416 23.256 15.552Z" fill="black"/>
<path d="M18 7.99197C19.224 7.99197 20.304 8.85597 20.664 10.008H28.008V9.57597L26.496 9.28797C26.28 7.99197 25.776 6.76797 24.984 5.75997L25.92 4.46397L24.264 2.80797L23.04 3.67197C21.96 2.95197 20.808 2.44797 19.44 2.23197L19.152 0.719971H16.776L16.56 2.23197C15.264 2.44797 14.04 2.95197 13.032 3.67197L11.808 2.80797L10.08 4.46397L10.944 5.68797C10.224 6.69597 9.648 7.91997 9.432 9.21597L7.92 9.50397V9.93597H15.264C15.696 8.78397 16.776 7.99197 18 7.99197Z" fill="black"/>
<path d="M34.704 31.4639H23.184C22.608 31.4639 22.104 31.7519 21.888 32.2559C21.672 32.6879 21.168 33.0479 20.592 33.0479H15.264C14.688 33.0479 14.184 32.7599 13.968 32.2559C13.752 31.8239 13.248 31.4639 12.672 31.4639H1.152C0.792003 31.4639 0.504002 31.8239 0.576002 32.1839L0.792003 32.9759C1.224 34.4159 2.52 35.3519 4.032 35.3519H31.68C33.192 35.3519 34.488 34.3439 34.92 32.9759L35.136 32.1839C35.352 31.8239 35.064 31.4639 34.704 31.4639Z" fill="black"/>
<path d="M12.744 15.552C10.728 16.416 8.784 17.784 6.98401 19.584L5.90401 20.736L6.98401 21.888C8.712 23.688 10.656 25.056 12.744 25.92C11.448 24.624 10.584 22.752 10.584 20.736C10.656 18.648 11.448 16.848 12.744 15.552Z" fill="black"/>
<path d="M18.792 18.792C18.648 19.872 17.712 20.736 16.56 20.736C16.344 20.736 16.128 20.736 15.912 20.664V20.736C15.912 21.888 16.848 22.824 18 22.824C19.152 22.824 20.088 21.888 20.088 20.736C20.088 19.872 19.584 19.08 18.792 18.792Z" fill="black"/>
<path d="M18.648 14.4719C18.432 14.4719 18.216 14.3999 18 14.3999C17.784 14.3999 17.568 14.3999 17.352 14.4719C14.184 14.8319 11.736 17.4959 11.736 20.6639C11.736 23.9039 14.184 26.5679 17.352 26.8559C17.568 26.8559 17.784 26.9279 18 26.9279C18.216 26.9279 18.432 26.9279 18.648 26.8559C21.744 26.4959 24.264 23.8319 24.264 20.6639C24.264 17.4959 21.816 14.8319 18.648 14.4719ZM18 23.9039C16.272 23.9039 14.832 22.4639 14.832 20.6639C14.832 20.3039 14.904 19.9439 15.048 19.5839C15.12 19.4399 15.264 19.2959 15.408 19.2239C15.552 19.1519 15.768 19.2239 15.912 19.2959C16.128 19.4399 16.344 19.5119 16.632 19.5119C17.28 19.5119 17.784 19.0079 17.784 18.3599C17.784 18.2879 17.784 18.1439 17.712 18.0719C17.64 17.9279 17.712 17.7119 17.856 17.5679C18 17.4239 18.144 17.3519 18.36 17.3519C20.016 17.4959 21.312 18.8639 21.312 20.5199C21.24 22.4639 19.8 23.9039 18 23.9039Z" fill="black"/>
<path d="M33.12 13.2479C33.12 12.0239 32.112 11.0879 30.888 11.0879H5.11201C3.88801 11.0879 2.88 12.0959 2.88 13.2479V30.3119H33.12V13.2479ZM31.248 21.0959L29.808 22.6079C26.424 26.1359 22.248 28.0799 18 28.0799C13.752 28.0799 9.57601 26.1359 6.19201 22.6079L4.75201 21.0959C4.53601 20.8799 4.53601 20.5199 4.75201 20.3039L6.19201 18.7919C9.57601 15.2639 13.752 13.3199 18 13.3199C22.248 13.3199 26.424 15.2639 29.808 18.7919L31.248 20.3039C31.464 20.5199 31.464 20.8799 31.248 21.0959Z" fill="black"/>
</svg>
