<svg width="36" height="36" viewBox="0 0 36 36" fill="none" xmlns="http://www.w3.org/2000/svg">
<g clip-path="url(#clip0_10_145)">
<path d="M18.6434 35.9787C21.3963 35.5876 23.8096 32.7143 25.3283 28.471C23.133 27.9794 20.8927 27.7155 18.6434 27.6841V35.9787Z" fill="black"/>
<path d="M23.0416 35.3038C23.2043 35.2567 23.3664 35.2093 23.5273 35.1571C23.663 35.1134 23.7968 35.0663 23.9306 35.0195C24.089 34.9649 24.2467 34.9086 24.4038 34.8489C24.5376 34.798 24.6702 34.744 24.803 34.69C24.9564 34.6256 25.1093 34.5615 25.2608 34.4971C25.393 34.439 25.5243 34.378 25.6557 34.3168C25.8043 34.2467 25.9522 34.1754 26.0989 34.1012C26.2277 34.0356 26.3562 33.9687 26.485 33.8999C26.6292 33.8226 26.7725 33.7437 26.9148 33.6627C27.0436 33.5898 27.1677 33.5166 27.293 33.4412C27.4325 33.3554 27.5714 33.2697 27.7093 33.1839C27.8327 33.1054 27.9559 33.0256 28.0775 32.9433C28.2132 32.8519 28.347 32.7567 28.4802 32.6615C28.5999 32.5757 28.719 32.4903 28.8358 32.4042C28.9646 32.3049 29.0966 32.2022 29.2257 32.0991C29.3404 32.0077 29.4547 31.9169 29.5675 31.823C29.696 31.7162 29.8191 31.6056 29.9439 31.495C30.0532 31.398 30.1631 31.3018 30.27 31.2022C30.3928 31.0876 30.5125 30.9688 30.6322 30.851C30.7358 30.7486 30.8408 30.6478 30.9422 30.5428C30.9611 30.5233 30.979 30.5023 30.9985 30.4822C29.5951 29.7574 28.1171 29.1885 26.59 28.7858C25.7958 31.3185 24.3824 33.6137 22.478 35.4628C22.5301 35.4493 22.5823 35.4383 22.6344 35.4248C22.772 35.3861 22.9071 35.3437 23.0416 35.3038Z" fill="black"/>
<path d="M36.0001 18.6582H28.2857C28.2565 21.6703 27.8195 24.6645 26.9867 27.5594C28.685 28.0131 30.324 28.6652 31.8696 29.5025C34.4073 26.4439 35.86 22.6304 36.0001 18.6582Z" fill="black"/>
<path d="M18.6434 17.3714H26.9989C26.9663 14.4658 26.5399 11.5781 25.7323 8.78687C23.4056 9.31747 21.0294 9.60084 18.6434 9.63225V17.3714Z" fill="black"/>
<path d="M18.6434 0.0509033V8.34549C20.8927 8.31376 23.133 8.05018 25.3283 7.55854C23.8096 3.31527 21.3963 0.442024 18.6434 0.0509033Z" fill="black"/>
<path d="M18.6434 26.3974C21.0294 26.4291 23.4056 26.7125 25.7323 27.2431C26.5399 24.4518 26.9663 21.5638 26.9989 18.6582H18.6434V26.3974Z" fill="black"/>
<path d="M31.8696 6.5271C30.324 7.36432 28.685 8.0165 26.9867 8.47014C27.8195 11.3651 28.2565 14.3593 28.2857 17.3714H36.0001C35.8597 13.3995 34.407 9.58601 31.8696 6.5271Z" fill="black"/>
<path d="M31.0003 5.55103C30.9815 5.53187 30.9636 5.51114 30.945 5.49135C30.8432 5.38642 30.7377 5.28526 30.634 5.18316C30.5146 5.06535 30.3956 4.94629 30.2724 4.83194C30.1659 4.73267 30.0556 4.63873 29.9463 4.53978C29.8216 4.42919 29.6969 4.31767 29.5687 4.21086C29.4575 4.11693 29.3435 4.02708 29.2304 3.93692C29.1016 3.83262 28.9696 3.72895 28.837 3.62936C28.7208 3.54171 28.603 3.45689 28.4846 3.37207C28.3501 3.27531 28.215 3.17886 28.078 3.08682C27.9577 3.00577 27.8355 2.9266 27.7133 2.849C27.5741 2.75947 27.4353 2.67182 27.2936 2.587C27.1695 2.51255 27.0442 2.43903 26.9185 2.36772C26.7746 2.28541 26.6304 2.20562 26.485 2.12771C26.3562 2.06331 26.2277 1.99325 26.0989 1.92885C25.9509 1.85408 25.8017 1.78214 25.6487 1.71145C25.5199 1.6502 25.3892 1.59051 25.2566 1.53239C25.1043 1.46484 24.9503 1.4039 24.7967 1.3395C24.6641 1.28546 24.5322 1.23206 24.3984 1.18116C24.2422 1.12148 24.0839 1.06556 23.9256 1.01089C23.7917 0.963771 23.6579 0.916962 23.5222 0.87298C23.3613 0.820831 23.2005 0.773394 23.0352 0.725642C22.9014 0.686373 22.767 0.646476 22.6316 0.610662C22.5797 0.596525 22.5269 0.58553 22.4748 0.572021C24.3792 2.42113 25.7923 4.71602 26.5868 7.24903C28.1154 6.84629 29.5957 6.27704 31.0003 5.55103Z" fill="black"/>
<path d="M0 17.3714H7.71435C7.74356 14.3593 8.18055 11.3651 9.01305 8.47014C7.31506 8.01681 5.67612 7.36463 4.13049 6.5271C1.59276 9.58569 0.140112 13.3995 0 17.3714Z" fill="black"/>
<path d="M17.3567 35.9787V27.6841C15.1073 27.7158 12.8671 27.9794 10.6718 28.471C12.1901 32.7143 14.6038 35.5876 17.3567 35.9787Z" fill="black"/>
<path d="M17.3566 18.6582H9.00107C9.03374 21.5638 9.45973 24.4518 10.2677 27.2431C12.5944 26.7122 14.9703 26.4288 17.3566 26.3974V18.6582Z" fill="black"/>
<path d="M17.3567 0.0509033C14.6038 0.442024 12.1901 3.31527 10.6718 7.55854C12.8671 8.0505 15.1073 8.31407 17.3567 8.34549V0.0509033Z" fill="black"/>
<path d="M17.3566 9.63225C14.9706 9.60084 12.5944 9.31747 10.2677 8.78687C9.45973 11.5781 9.03374 14.4658 9.00107 17.3714H17.3566V9.63225Z" fill="black"/>
<path d="M13.5202 0.571411C13.468 0.58492 13.4159 0.595915 13.3637 0.609424C13.2274 0.645866 13.0929 0.686391 12.9572 0.72566C12.7957 0.772783 12.6355 0.82022 12.4734 0.871742C12.3368 0.916037 12.2023 0.96316 12.0678 1.00997C11.9104 1.06557 11.7527 1.12087 11.5969 1.17993C11.4625 1.23145 11.3299 1.28485 11.1967 1.33952C11.0437 1.40392 10.8904 1.46832 10.7393 1.53241C10.6067 1.59052 10.4757 1.65147 10.3444 1.71273C10.1958 1.78279 10.0478 1.8541 9.90112 1.92824C9.77232 1.9939 9.64352 2.06113 9.51503 2.12961C9.37083 2.20689 9.22789 2.28606 9.0859 2.36711C8.95709 2.43905 8.83049 2.51288 8.7064 2.58827C8.5666 2.67247 8.42837 2.75949 8.29077 2.84557C8.167 2.92473 8.04416 3.00453 7.92259 3.08684C7.78687 3.17825 7.65304 3.27344 7.51984 3.36863C7.40015 3.45439 7.28108 3.53984 7.1639 3.62624C7.03227 3.72519 6.90661 3.82824 6.77404 3.93096C6.65969 4.02238 6.54439 4.11317 6.43256 4.20773C6.30375 4.31392 6.18155 4.42387 6.05746 4.53382C5.9475 4.63184 5.83661 4.72703 5.72917 4.8285C5.60696 4.94254 5.4879 5.06097 5.36852 5.17847C5.26485 5.28088 5.15929 5.38204 5.05751 5.48728C5.03897 5.50676 5.02106 5.52812 5.00159 5.54791C6.4046 6.27298 7.883 6.84191 9.4101 7.24465C10.2043 4.71321 11.6167 2.41957 13.5202 0.571411Z" fill="black"/>
<path d="M5.36575 30.8464C5.48545 30.9642 5.60451 31.0832 5.72734 31.1979C5.83416 31.2968 5.94411 31.3908 6.05375 31.4897C6.17847 31.6006 6.30319 31.7118 6.43136 31.8187C6.54257 31.912 6.65598 32.0021 6.7697 32.0926C6.89851 32.1969 7.02699 32.3006 7.16334 32.4008C7.27926 32.4878 7.39707 32.572 7.51487 32.6584C7.64933 32.7548 7.78505 32.8513 7.92202 32.9439C8.04234 33.025 8.16454 33.1042 8.28675 33.1821C8.42592 33.2713 8.56477 33.3589 8.70646 33.4438C8.83055 33.5185 8.95589 33.5917 9.08156 33.6634C9.22544 33.7457 9.36963 33.8255 9.51509 33.9031C9.64358 33.9675 9.77238 34.0375 9.90118 34.1019C10.0491 34.1767 10.1984 34.2486 10.3514 34.3196C10.4802 34.3803 10.6109 34.4399 10.7434 34.4984C10.8958 34.5659 11.0494 34.6269 11.2033 34.6913C11.3359 34.7453 11.4679 34.7987 11.6017 34.8496C11.7578 34.9096 11.9162 34.9655 12.0745 35.0202C12.2083 35.067 12.3422 35.1141 12.4779 35.1578C12.6387 35.2099 12.7996 35.2577 12.9648 35.3051C13.0986 35.3444 13.2331 35.3843 13.3682 35.4204C13.4203 35.4346 13.4731 35.4455 13.5253 35.4591C11.6209 33.6096 10.2078 31.3148 9.4133 28.7817C7.8862 29.1848 6.4078 29.7537 5.00479 30.4791C5.02364 30.4983 5.04155 30.519 5.0604 30.5388C5.15684 30.6431 5.26083 30.7443 5.36575 30.8464Z" fill="black"/>
<path d="M4.13049 29.5025C5.67612 28.6652 7.31506 28.0131 9.01305 27.5594C8.18055 24.6645 7.74356 21.6703 7.71435 18.6582H0C0.140426 22.63 1.59276 26.4436 4.13049 29.5025Z" fill="black"/>
</g>
<defs>
<clipPath id="clip0_10_145">
<rect width="36" height="36" fill="white"/>
</clipPath>
</defs>
</svg>
